<svg xmlns="http://www.w3.org/2000/svg" xmlns:xlink="http://www.w3.org/1999/xlink" width="424" height="437" viewBox="0 0 424 437">
  <defs>
    <clipPath id="clip-bg-1">
      <rect width="424" height="437"/>
    </clipPath>
  </defs>
  <g id="bg-1" clip-path="url(#clip-bg-1)">
    <path id="Path_6" data-name="Path 6" d="M652.33,239.218l-13.689,23.7-46.815-81.086L448.113,430.724h97.3a23.7,23.7,0,0,0,23.7,23.7H448.113a23.7,23.7,0,0,1-20.523-35.556L571.3,169.983a23.7,23.7,0,0,1,41.057,0Z" transform="translate(-412.024 -87.779)" fill="#00c58e"/>
    <path id="Path_7" data-name="Path 7" d="M756.073,418.872,666.019,262.921l-13.689-23.7-13.689,23.7L548.6,418.872a23.7,23.7,0,0,0,20.523,35.556h166.4a23.7,23.7,0,0,0,20.533-35.556h.02ZM569.12,430.724l83.21-144.1,83.19,144.1Z" transform="translate(-412.024 -87.779)" fill="#2f495e"/>
    <path id="Path_8" data-name="Path 8" d="M820.458,442.576a23.7,23.7,0,0,1-20.523,11.851H735.52a23.7,23.7,0,0,0,23.7-23.7h40.662L684.508,230.892l-18.489,32.029-13.689-23.7,11.654-20.178a23.7,23.7,0,0,1,41.057,0L820.458,418.872a23.7,23.7,0,0,1,0,23.7Z" transform="translate(-412.024 -87.779)" fill="#108775"/>
  </g>
</svg>
