<svg id="undraw_static_website_re_x70h" xmlns="http://www.w3.org/2000/svg" width="693" height="528" viewBox="0 0 693 528">
  <path id="Path_32" data-name="Path 32" d="M946.5,469.5V691.31A22.717,22.717,0,0,1,923.81,714H753.67l1.58-2L944.5,472.04Z" transform="translate(-253.5 -186)" fill="#f2f2f2"/>
  <path id="Path_33" data-name="Path 33" d="M524.312,391.368H328.943a6.036,6.036,0,1,0,0,12.072H524.312a6.036,6.036,0,0,0,0-12.072Z" transform="translate(-253.5 -186)" fill="#e6e6e6"/>
  <path id="Path_34" data-name="Path 34" d="M389.518,357.524H328.943a6.036,6.036,0,1,0,0,12.072h60.575a6.036,6.036,0,0,0,0-12.072Z" transform="translate(-253.5 -186)" fill="#e6e6e6"/>
  <path id="Path_35" data-name="Path 35" d="M923.81,186H276.19a22.717,22.717,0,0,0-22.69,22.69V691.31A22.717,22.717,0,0,0,276.19,714H923.81a22.717,22.717,0,0,0,22.69-22.69V208.69A22.717,22.717,0,0,0,923.81,186ZM944.5,691.31A20.69,20.69,0,0,1,923.81,712H276.19a20.69,20.69,0,0,1-20.69-20.69V343.676A155.676,155.676,0,0,1,411.176,188H923.81a20.69,20.69,0,0,1,20.69,20.69Z" transform="translate(-253.5 -186)" fill="#e6e6e6"/>
  <path id="Path_36" data-name="Path 36" d="M883.391,273.269H316.66a1,1,0,0,1,0-2H883.391a1,1,0,0,1,0,2Z" transform="translate(-253.5 -186)" fill="#e6e6e6"/>
  <ellipse id="Ellipse_2" data-name="Ellipse 2" cx="8.457" cy="8.645" rx="8.457" ry="8.645" transform="translate(83.058 39.958)" fill="#e6e6e6"/>
  <ellipse id="Ellipse_3" data-name="Ellipse 3" cx="8.457" cy="8.645" rx="8.457" ry="8.645" transform="translate(112.272 39.958)" fill="#e6e6e6"/>
  <ellipse id="Ellipse_4" data-name="Ellipse 4" cx="8.457" cy="8.645" rx="8.457" ry="8.645" transform="translate(141.485 39.958)" fill="#e6e6e6"/>
  <path id="Path_37" data-name="Path 37" d="M436.754,241.436a1,1,0,0,1-.715-.3l-5.706-5.833a1,1,0,0,1,0-1.4l5.706-5.833a1,1,0,1,1,1.43,1.4l-5.022,5.133,5.022,5.134a1,1,0,0,1-.715,1.7Z" transform="translate(-253.5 -186)" fill="#e6e6e6"/>
  <path id="Path_38" data-name="Path 38" d="M446.342,241.436a1,1,0,0,1-.715-1.7l5.021-5.134-5.021-5.133a1,1,0,1,1,1.43-1.4l5.706,5.833a1,1,0,0,1,0,1.4l-5.706,5.833A1,1,0,0,1,446.342,241.436Z" transform="translate(-253.5 -186)" fill="#e6e6e6"/>
  <path id="Path_39" data-name="Path 39" d="M832.852,226.959h-10.61a2.189,2.189,0,0,0-2.19,2.19v10.62a2.189,2.189,0,0,0,2.19,2.19h10.61a2.2,2.2,0,0,0,2.2-2.19v-10.62a2.2,2.2,0,0,0-2.2-2.19Z" transform="translate(-253.5 -186)" fill="#e6e6e6"/>
  <path id="Path_40" data-name="Path 40" d="M806.852,226.959h-10.61a2.189,2.189,0,0,0-2.19,2.19v10.62a2.189,2.189,0,0,0,2.19,2.19h10.61a2.2,2.2,0,0,0,2.2-2.19v-10.62a2.2,2.2,0,0,0-2.2-2.19Z" transform="translate(-253.5 -186)" fill="#e6e6e6"/>
  <path id="Path_41" data-name="Path 41" d="M857.352,227.459h-10.61a2.189,2.189,0,0,0-2.19,2.19v10.62a2.189,2.189,0,0,0,2.19,2.19h10.61a2.2,2.2,0,0,0,2.2-2.19v-10.62a2.2,2.2,0,0,0-2.2-2.19Z" transform="translate(-253.5 -186)" fill="#e6e6e6"/>
  <path id="Path_42" data-name="Path 42" d="M642.43,231.5H557.62a2.67,2.67,0,0,0,0,5.34h84.81a2.67,2.67,0,1,0,0-5.34Z" transform="translate(-253.5 -186)" fill="#e6e6e6"/>
  <path id="Path_43" data-name="Path 43" d="M415.107,596.446l-50.717-1.6c-7.034-.222-14.944-.211-19.962,3.424-5.694,4.126-4.832,11.435-.1,16.177s12.277,7.45,19.686,9.652c39.364,11.7,82.929,14.075,125.229,11.428s83.73-10.132,124.955-17.59c3.91-.707,8.341-1.725,9.936-4.446,1.542-2.632-.476-5.807-3.611-7.508s-7.109-2.275-10.943-2.781a1027.715,1027.715,0,0,0-209.5-5.976" transform="translate(-253.5 -186)" fill="#6c63ff"/>
  <path id="Path_44" data-name="Path 44" d="M506.23,557.44v-12c-8.708.123-39.87-.089-48,0-.605,41.941-4.313,33.725,30.048,33.888a5.975,5.975,0,0,1,5.952,5.967v.18a5.965,5.965,0,0,1-5.965,5.965H458.23v12h48c.067-.04-.049-11.587,0-12,2.03-34.765-1.986-22.261-31.166-23.656a5.1,5.1,0,0,1-4.835-5.095v-.15a5.1,5.1,0,0,1,5.1-5.1Z" transform="translate(-253.5 -186)" fill="#3f3d56"/>
  <path id="Path_45" data-name="Path 45" d="M565.23,557.44v-12c-8.708.123-39.87-.089-48,0-.61,42.305-4.378,33.579,30.952,33.895a5.1,5.1,0,0,1,5.048,5.1c0,.63,0,1.275,0,1.907a5.1,5.1,0,0,1-5.1,5.1h-30.9v12h48c.067-.04-.049-11.587,0-12,2.03-34.765-1.986-22.261-31.166-23.656a5.1,5.1,0,0,1-4.835-5.095v-.15a5.1,5.1,0,0,1,5.1-5.1Z" transform="translate(-253.5 -186)" fill="#3f3d56"/>
  <path id="Path_46" data-name="Path 46" d="M444.23,557.44v-12h-48c-.034,10.7.025,39.032,0,50-9.409,15.929,44.042,4.9,48,8,0,0,0-12,0-12-36.521-.191-37.439,6.646-36.264-26.43a7.844,7.844,0,0,1,7.834-7.571Z" transform="translate(-253.5 -186)" fill="#3f3d56"/>
  <path id="Path_47" data-name="Path 47" d="M539.107,453.112l-50.717-1.336c-7.034-.185-14.944-.176-19.962,2.854-5.694,3.439-4.832,9.532-.1,13.484s12.277,6.21,19.686,8.046c39.364,9.753,82.929,11.733,125.229,9.526s83.73-8.445,124.955-14.663c3.91-.59,8.341-1.438,9.936-3.706,1.542-2.194-.476-4.84-3.611-6.258s-7.109-1.9-10.943-2.318a1231.445,1231.445,0,0,0-209.5-4.982" transform="translate(-253.5 -186)" fill="#6c63ff"/>
  <path id="Path_48" data-name="Path 48" d="M530.23,400.44c-.817,18.526,5.992,24.358-17.5,22-1.587-11.052,6.462-26.39-12-22.5,3.7,8.018-10.3,68.844,12,57.995,1.252-18.275-7-26.29,17.5-23.494,1.965,11.3-7.207,27.921,12,24C538.531,450.417,552.532,389.6,530.23,400.44Z" transform="translate(-253.5 -186)" fill="#3f3d56"/>
  <path id="Path_49" data-name="Path 49" d="M653.23,400.44c1.647,1.017-15.09,18.724-15.452,20.175-.5-1.238-16.477-18.562-14.548-20.174-22.229-10.985-8.375,50.195-12,58,0,0,12,0,12,0v-38c16.867,22.75,13.735,18.922,30-1.117V458.44c22.229,10.989,8.376-50.2,12-58C665.23,400.44,653.23,400.44,653.23,400.44Z" transform="translate(-253.5 -186)" fill="#3f3d56"/>
  <path id="Path_50" data-name="Path 50" d="M600.23,400.44h-48c-2.82,16.822,6.505,11.18,18,12l0,46h12v-46C593.673,411.662,603.086,417.188,600.23,400.44Z" transform="translate(-253.5 -186)" fill="#3f3d56"/>
  <path id="Path_51" data-name="Path 51" d="M687.23,446.44a128.28,128.28,0,0,1,0-46h-12c.069,7.6-.021,38.282-.014,52.312a5.71,5.71,0,0,0,5.706,5.713c12.09.016,35.17-.073,42.309-.024v-12Z" transform="translate(-253.5 -186)" fill="#3f3d56"/>
  <path id="Path_52" data-name="Path 52" d="M380.681,448.44H331.907a9,9,0,0,0,0,18h48.774a9,9,0,0,0,0-18Z" transform="translate(-253.5 -186)" fill="#e6e6e6"/>
  <path id="Path_53" data-name="Path 53" d="M569.392,517.568h-9.9l-4.71-38.19h14.613Z" fill="#ffb6b6"/>
  <path id="Path_54" data-name="Path 54" d="M823.241,713.9H792.794v-.385a11.851,11.851,0,0,1,11.85-11.851h0l5.562-4.219,10.377,4.22h2.658Z" transform="translate(-253.5 -186)" fill="#2f2e41"/>
  <path id="Path_55" data-name="Path 55" d="M604.392,517.568h-9.9l-4.71-38.19h14.613Z" fill="#ffb6b6"/>
  <path id="Path_56" data-name="Path 56" d="M858.241,713.9H827.794v-.385a11.851,11.851,0,0,1,11.85-11.851h0l5.562-4.219,10.377,4.22h2.658Z" transform="translate(-253.5 -186)" fill="#2f2e41"/>
  <path id="Path_57" data-name="Path 57" d="M798.239,495.48s-9.526,29.258-7.768,33.109,4.759.851,1.759,3.851-5.619-.189-2.809,4.906,7.066,47.034,8.938,49.064,4.446,2.085,2.159,4.057-5.287-2.027-2.287,1.973,10.961,96.276,10.961,96.276h15.551s3.873-4.465,1.681-7.37.192-4.025,0-5.966.537-6.123.672-8.031,2.764-47.378-3.551-73.643l11.514-50.012,5.757,60.446s-6.416,50.7,0,67c0,0-5.172,4.307-2.878,6.8s4.294.5,2.294,2.5,3,9,3,9l17-1,9.622-94.734s1.622-9.88,0-11.573-1.622,4.307-1.622-1.693v-8s7.251-49.2,7.125-52.1-12.125-23.9-12.125-23.9Z" transform="translate(-253.5 -186)" fill="#2f2e41"/>
  <path id="Path_58" data-name="Path 58" d="M848.519,377.147,823.7,375.44l-7.428,11.712-17.889,7.273v57.694a55.6,55.6,0,0,1,2.851,17.321c-.068,11.495-3.023,25.035-2,28,10,29,65,0,65,0l-1-31,1.357-70.059-11.239-8.964Z" transform="translate(-253.5 -186)" fill="#e6e6e6"/>
  <path id="Path_59" data-name="Path 59" d="M797.233,508.005l-1.712-18.242-10.557-.476,2.5,19.221a6.133,6.133,0,1,0,9.773-.5Z" transform="translate(-253.5 -186)" fill="#ffb6b6"/>
  <path id="Path_60" data-name="Path 60" d="M802.428,392.886l-.293.049a16.988,16.988,0,0,0-12.585,9.628c-3.023,6.538-12.84,49.517-8.536,56,3.338,5.027,2.527,4.046.958,7.838s-4.1-.254-2.025,5.764,4.347,5.159,2.424,7.485-3.894,1.869-2.025,5.764,1.566,5.209,1.919,6.675.046,11.782.046,11.782,11.276-.855,16.888,1.827c0,0-3.131-10.418-1.361-12.086s3.894-1.869,2.378-4.3-4.954-2.53-1.212-3.742,2.537-22.956,2.537-22.956C807.705,446.475,805.27,419.927,802.428,392.886Z" transform="translate(-253.5 -186)" fill="#e6e6e6"/>
  <path id="Path_61" data-name="Path 61" d="M870.422,509.306l.789-18.3,10.519-1.008-1.523,19.323a6.133,6.133,0,1,1-9.786-.01Z" transform="translate(-253.5 -186)" fill="#ffb6b6"/>
  <path id="Path_62" data-name="Path 62" d="M859.426,394.6l.295.035a16.988,16.988,0,0,1,13.054,8.981c3.349,6.377,13.945,49.569,11.351,55.5-2.419,5.528-2.319,4.168-.561,7.876s4.078-.461,2.313,5.654-4.081,5.372-2.044,7.6,3.984,1.671,2.313,5.654-1.3,5.281-1.58,6.764.548,11.769.548,11.769-11.305-.285-16.774,2.676c0,0,2.6-10.562.749-12.139s-3.984-1.671-2.592-4.172,4.82-2.777,1.022-3.8-3.692-22.8-3.692-22.8Z" transform="translate(-253.5 -186)" fill="#e6e6e6"/>
  <circle id="Ellipse_5" data-name="Ellipse 5" cx="19.362" cy="19.362" r="19.362" transform="translate(563.855 147.048)" fill="#ffb6b6"/>
  <path id="Path_63" data-name="Path 63" d="M850.192,368.984c2.693-2.107,2.954-6.124,5.252-8.657,3.842-4.234,5.647-8.789,3.635-13.805-1.78-4.437-1.4-9.891-5.236-12.747,1.883-.682,2.326-2.1.665-2.123-1.12-.018-5.3,2.124-3.287-.544s-1.795-1.615-1.543-2.707,1.865-1.7,2.577-.831a5.64,5.64,0,0,0-8.846,1.012c-2.265-3.394-4.668-5.729-8.134-3.576-3.4,2.115-3.359,4.73-7.019,4.1-1.721-.3-1.883,2.955-3.059,4.246a5.247,5.247,0,0,1-4.609,1.966c-1.715-.324-3.027-2.462-2.066-3.919l-4.043,9.224-1.629-2c-2.589,1.687-1.739,6.09.867,7.751s5.993,1.306,8.994.57a35.276,35.276,0,0,1,11.052-.917c5.666.8,9.613,7.575,7.515,12.9,2.177-2.138,6.2-.364,7.332,2.471s.3,6.029-.535,8.964" transform="translate(-253.5 -186)" fill="#2f2e41"/>
</svg>
