<svg xmlns="http://www.w3.org/2000/svg" width="564.814" height="344.135" viewBox="0 0 564.814 344.135">
  <g id="undraw_hacker_mind_-6-y85" transform="translate(-155.093 -63.272)">
    <rect id="Rectangle_7" data-name="Rectangle 7" width="7.716" height="12.346" transform="translate(158.179 66.358)" fill="#6c63ff"/>
    <rect id="Rectangle_8" data-name="Rectangle 8" width="7.716" height="12.346" transform="translate(184.414 63.272)" fill="#6c63ff"/>
    <rect id="Rectangle_9" data-name="Rectangle 9" width="7.716" height="12.346" transform="translate(198.302 63.272)" fill="#6c63ff"/>
    <rect id="Rectangle_10" data-name="Rectangle 10" width="7.716" height="12.346" transform="translate(198.302 100.309)" fill="#6c63ff"/>
    <rect id="Rectangle_11" data-name="Rectangle 11" width="7.716" height="12.346" transform="translate(213.735 81.79)" fill="#6c63ff"/>
    <rect id="Rectangle_12" data-name="Rectangle 12" width="7.716" height="12.346" transform="translate(213.735 101.852)" fill="#6c63ff"/>
    <rect id="Rectangle_13" data-name="Rectangle 13" width="7.716" height="12.346" transform="translate(198.302 140.432)" fill="#6c63ff"/>
    <rect id="Rectangle_14" data-name="Rectangle 14" width="7.716" height="12.346" transform="translate(213.735 160.494)" fill="#6c63ff"/>
    <rect id="Rectangle_15" data-name="Rectangle 15" width="7.716" height="12.346" transform="translate(198.302 236.111)" fill="#6c63ff"/>
    <rect id="Rectangle_16" data-name="Rectangle 16" width="7.716" height="12.346" transform="translate(184.414 160.494)" fill="#6c63ff"/>
    <rect id="Rectangle_17" data-name="Rectangle 17" width="7.716" height="12.346" transform="translate(158.179 86.42)" fill="#6c63ff"/>
    <rect id="Rectangle_18" data-name="Rectangle 18" width="7.716" height="12.346" transform="translate(158.179 279.321)" fill="#6c63ff"/>
    <rect id="Rectangle_19" data-name="Rectangle 19" width="7.716" height="12.346" transform="translate(158.179 319.444)" fill="#6c63ff"/>
    <rect id="Rectangle_20" data-name="Rectangle 20" width="7.716" height="12.346" transform="translate(158.179 339.506)" fill="#6c63ff"/>
    <rect id="Rectangle_21" data-name="Rectangle 21" width="10.802" height="1.543" transform="translate(155.093 108.025)" fill="#6c63ff"/>
    <rect id="Rectangle_22" data-name="Rectangle 22" width="10.802" height="1.543" transform="translate(196.759 126.543)" fill="#6c63ff"/>
    <rect id="Rectangle_23" data-name="Rectangle 23" width="10.802" height="1.543" transform="translate(155.093 206.79)" fill="#6c63ff"/>
    <rect id="Rectangle_24" data-name="Rectangle 24" width="10.802" height="1.543" transform="translate(155.093 223.765)" fill="#6c63ff"/>
    <rect id="Rectangle_25" data-name="Rectangle 25" width="10.802" height="1.543" transform="translate(196.759 322.531)" fill="#6c63ff"/>
    <rect id="Rectangle_26" data-name="Rectangle 26" width="10.802" height="1.543" transform="translate(184.414 359.568)" fill="#6c63ff"/>
    <path id="Path_64" data-name="Path 64" d="M158.179,121.914V125h3.086v6.173h-3.086v3.086H165.9V121.914Z" fill="#6c63ff"/>
    <path id="Path_65" data-name="Path 65" d="M184.414,100.309v3.086H187.5v6.173h-3.086v3.086h7.716V100.309Z" fill="#6c63ff"/>
    <path id="Path_66" data-name="Path 66" d="M213.735,120.37v3.087h3.086v6.173h-3.086v3.086h7.716V120.37Z" fill="#6c63ff"/>
    <path id="Path_67" data-name="Path 67" d="M213.735,180.556v3.086h3.086v6.173h-3.086V192.9h7.716V180.556Z" fill="#6c63ff"/>
    <path id="Path_68" data-name="Path 68" d="M213.735,200.617V203.7h3.086v6.173h-3.086v3.086h7.716V200.617Z" fill="#6c63ff"/>
    <path id="Path_69" data-name="Path 69" d="M213.735,138.889v3.086h3.086v6.173h-3.086v3.087h7.716V138.889Z" fill="#6c63ff"/>
    <path id="Path_70" data-name="Path 70" d="M198.3,81.79v3.087h3.087v6.172H198.3v3.087h7.717V81.79Z" fill="#6c63ff"/>
    <rect id="Rectangle_27" data-name="Rectangle 27" width="7.716" height="12.346" transform="translate(198.302 180.556)" fill="#6c63ff"/>
    <rect id="Rectangle_28" data-name="Rectangle 28" width="7.716" height="12.346" transform="translate(198.302 217.593)" fill="#6c63ff"/>
    <path id="Path_71" data-name="Path 71" d="M198.3,199.074v3.086h3.087v6.173H198.3v3.087h7.717V199.074Z" fill="#6c63ff"/>
    <path id="Path_72" data-name="Path 72" d="M184.414,120.37v3.087H187.5v6.173h-3.086v3.086h7.716V120.37Z" fill="#6c63ff"/>
    <path id="Path_73" data-name="Path 73" d="M184.414,140.432v3.087H187.5v6.172h-3.086v3.087h7.716V140.432Z" fill="#6c63ff"/>
    <rect id="Rectangle_29" data-name="Rectangle 29" width="7.716" height="12.346" transform="translate(184.414 200.617)" fill="#6c63ff"/>
    <path id="Path_74" data-name="Path 74" d="M184.414,180.556v3.086H187.5v6.173h-3.086V192.9h7.716V180.556Z" fill="#6c63ff"/>
    <rect id="Rectangle_30" data-name="Rectangle 30" width="7.716" height="12.346" transform="translate(184.414 240.741)" fill="#6c63ff"/>
    <path id="Path_75" data-name="Path 75" d="M184.414,220.679v3.086H187.5v6.173h-3.086v3.087h7.716V220.679Z" fill="#6c63ff"/>
    <rect id="Rectangle_31" data-name="Rectangle 31" width="7.716" height="12.346" transform="translate(184.414 280.864)" fill="#6c63ff"/>
    <rect id="Rectangle_32" data-name="Rectangle 32" width="7.716" height="12.346" transform="translate(198.302 277.778)" fill="#6c63ff"/>
    <path id="Path_76" data-name="Path 76" d="M184.414,260.8v3.087H187.5v6.173h-3.086v3.086h7.716V260.8Z" fill="#6c63ff"/>
    <path id="Path_77" data-name="Path 77" d="M213.735,260.8v3.087h3.086v6.173h-3.086v3.086h7.716V260.8Z" fill="#6c63ff"/>
    <rect id="Rectangle_33" data-name="Rectangle 33" width="7.716" height="12.346" transform="translate(292.438 81.79)" fill="#6c63ff"/>
    <rect id="Rectangle_34" data-name="Rectangle 34" width="7.716" height="12.346" transform="translate(292.438 101.852)" fill="#6c63ff"/>
    <rect id="Rectangle_35" data-name="Rectangle 35" width="7.716" height="12.346" transform="translate(292.438 160.494)" fill="#6c63ff"/>
    <path id="Path_78" data-name="Path 78" d="M292.438,120.37v3.087h3.087v6.173h-3.087v3.086h7.716V120.37Z" fill="#6c63ff"/>
    <path id="Path_79" data-name="Path 79" d="M292.438,180.556v3.086h3.087v6.173h-3.087V192.9h7.716V180.556Z" fill="#6c63ff"/>
    <path id="Path_80" data-name="Path 80" d="M292.438,200.617V203.7h3.087v6.173h-3.087v3.086h7.716V200.617Z" fill="#6c63ff"/>
    <path id="Path_81" data-name="Path 81" d="M292.438,138.889v3.086h3.087v6.173h-3.087v3.087h7.716V138.889Z" fill="#6c63ff"/>
    <path id="Path_82" data-name="Path 82" d="M292.438,260.8v3.087h3.087v6.173h-3.087v3.086h7.716V260.8Z" fill="#6c63ff"/>
    <rect id="Rectangle_36" data-name="Rectangle 36" width="7.716" height="12.346" transform="translate(184.414 320.988)" fill="#6c63ff"/>
    <rect id="Rectangle_37" data-name="Rectangle 37" width="7.716" height="12.346" transform="translate(198.302 297.84)" fill="#6c63ff"/>
    <rect id="Rectangle_38" data-name="Rectangle 38" width="7.716" height="12.346" transform="translate(184.414 373.457)" fill="#6c63ff"/>
    <rect id="Rectangle_39" data-name="Rectangle 39" width="7.716" height="12.346" transform="translate(198.302 336.42)" fill="#6c63ff"/>
    <path id="Path_83" data-name="Path 83" d="M184.414,300.926v3.086H187.5v6.173h-3.086v3.087h7.716V300.926Z" fill="#6c63ff"/>
    <path id="Path_84" data-name="Path 84" d="M184.414,395.062v3.086H187.5v6.173h-3.086v3.086h7.716V395.062Z" fill="#6c63ff"/>
    <rect id="Rectangle_40" data-name="Rectangle 40" width="7.716" height="12.346" transform="translate(269.29 63.272)" fill="#6c63ff"/>
    <rect id="Rectangle_41" data-name="Rectangle 41" width="7.716" height="12.346" transform="translate(269.29 160.494)" fill="#6c63ff"/>
    <rect id="Rectangle_42" data-name="Rectangle 42" width="10.802" height="1.543" transform="translate(269.29 359.568)" fill="#6c63ff"/>
    <path id="Path_85" data-name="Path 85" d="M269.29,100.309v3.086h3.087v6.173H269.29v3.086h7.716V100.309Z" fill="#6c63ff"/>
    <path id="Path_86" data-name="Path 86" d="M269.29,120.37v3.087h3.087v6.173H269.29v3.086h7.716V120.37Z" fill="#6c63ff"/>
    <path id="Path_87" data-name="Path 87" d="M269.29,140.432v3.087h3.087v6.172H269.29v3.087h7.716V140.432Z" fill="#6c63ff"/>
    <rect id="Rectangle_43" data-name="Rectangle 43" width="7.716" height="12.346" transform="translate(269.29 200.617)" fill="#6c63ff"/>
    <path id="Path_88" data-name="Path 88" d="M269.29,180.556v3.086h3.087v6.173H269.29V192.9h7.716V180.556Z" fill="#6c63ff"/>
    <rect id="Rectangle_44" data-name="Rectangle 44" width="7.716" height="12.346" transform="translate(269.29 240.741)" fill="#6c63ff"/>
    <path id="Path_89" data-name="Path 89" d="M269.29,220.679v3.086h3.087v6.173H269.29v3.087h7.716V220.679Z" fill="#6c63ff"/>
    <rect id="Rectangle_45" data-name="Rectangle 45" width="7.716" height="12.346" transform="translate(269.29 280.864)" fill="#6c63ff"/>
    <path id="Path_90" data-name="Path 90" d="M269.29,260.8v3.087h3.087v6.173H269.29v3.086h7.716V260.8Z" fill="#6c63ff"/>
    <rect id="Rectangle_46" data-name="Rectangle 46" width="7.716" height="12.346" transform="translate(269.29 320.988)" fill="#6c63ff"/>
    <rect id="Rectangle_47" data-name="Rectangle 47" width="7.716" height="12.346" transform="translate(269.29 373.457)" fill="#6c63ff"/>
    <path id="Path_91" data-name="Path 91" d="M269.29,300.926v3.086h3.087v6.173H269.29v3.087h7.716V300.926Z" fill="#6c63ff"/>
    <path id="Path_92" data-name="Path 92" d="M269.29,395.062v3.086h3.087v6.173H269.29v3.086h7.716V395.062Z" fill="#6c63ff"/>
    <rect id="Rectangle_48" data-name="Rectangle 48" width="7.716" height="12.346" transform="translate(306.327 63.272)" fill="#6c63ff"/>
    <rect id="Rectangle_49" data-name="Rectangle 49" width="7.716" height="12.346" transform="translate(306.327 160.494)" fill="#6c63ff"/>
    <rect id="Rectangle_50" data-name="Rectangle 50" width="10.802" height="1.543" transform="translate(306.327 359.568)" fill="#6c63ff"/>
    <path id="Path_93" data-name="Path 93" d="M306.327,100.309v3.086h3.087v6.173h-3.087v3.086h7.716V100.309Z" fill="#6c63ff"/>
    <path id="Path_94" data-name="Path 94" d="M306.327,120.37v3.087h3.087v6.173h-3.087v3.086h7.716V120.37Z" fill="#6c63ff"/>
    <path id="Path_95" data-name="Path 95" d="M306.327,140.432v3.087h3.087v6.172h-3.087v3.087h7.716V140.432Z" fill="#6c63ff"/>
    <rect id="Rectangle_51" data-name="Rectangle 51" width="7.716" height="12.346" transform="translate(306.327 200.617)" fill="#6c63ff"/>
    <path id="Path_96" data-name="Path 96" d="M306.327,180.556v3.086h3.087v6.173h-3.087V192.9h7.716V180.556Z" fill="#6c63ff"/>
    <rect id="Rectangle_52" data-name="Rectangle 52" width="7.716" height="12.346" transform="translate(306.327 240.741)" fill="#6c63ff"/>
    <path id="Path_97" data-name="Path 97" d="M306.327,220.679v3.086h3.087v6.173h-3.087v3.087h7.716V220.679Z" fill="#6c63ff"/>
    <rect id="Rectangle_53" data-name="Rectangle 53" width="7.716" height="12.346" transform="translate(306.327 280.864)" fill="#6c63ff"/>
    <path id="Path_98" data-name="Path 98" d="M306.327,260.8v3.087h3.087v6.173h-3.087v3.086h7.716V260.8Z" fill="#6c63ff"/>
    <rect id="Rectangle_54" data-name="Rectangle 54" width="7.716" height="12.346" transform="translate(306.327 320.988)" fill="#6c63ff"/>
    <rect id="Rectangle_55" data-name="Rectangle 55" width="7.716" height="12.346" transform="translate(306.327 373.457)" fill="#6c63ff"/>
    <path id="Path_99" data-name="Path 99" d="M306.327,300.926v3.086h3.087v6.173h-3.087v3.087h7.716V300.926Z" fill="#6c63ff"/>
    <path id="Path_100" data-name="Path 100" d="M306.327,395.062v3.086h3.087v6.173h-3.087v3.086h7.716V395.062Z" fill="#6c63ff"/>
    <path id="Path_101" data-name="Path 101" d="M198.3,373.457v3.086h3.087v6.173H198.3V385.8h7.717V373.457Z" fill="#6c63ff"/>
    <path id="Path_102" data-name="Path 102" d="M198.3,393.519v3.086h3.087v6.173H198.3v3.086h7.717V393.519Z" fill="#6c63ff"/>
    <path id="Path_103" data-name="Path 103" d="M158.179,160.494v3.086h3.086v6.173h-3.086v3.087H165.9V160.494Z" fill="#6c63ff"/>
    <path id="Path_104" data-name="Path 104" d="M158.179,239.2v3.086h3.086v6.173h-3.086v3.086H165.9V239.2Z" fill="#6c63ff"/>
    <path id="Path_105" data-name="Path 105" d="M158.179,259.259v3.087h3.086v6.173h-3.086v3.086H165.9V259.259Z" fill="#6c63ff"/>
    <path id="Path_106" data-name="Path 106" d="M158.179,299.383v3.086h3.086v6.173h-3.086v3.086H165.9V299.383Z" fill="#6c63ff"/>
    <path id="Path_107" data-name="Path 107" d="M158.179,356.481v3.087h3.086v6.173h-3.086v3.086H165.9V356.481Z" fill="#6c63ff"/>
    <path id="Path_108" data-name="Path 108" d="M158.179,373.457v3.086h3.086v6.173h-3.086V385.8H165.9V373.457Z" fill="#6c63ff"/>
    <rect id="Rectangle_56" data-name="Rectangle 56" width="7.716" height="12.346" transform="translate(238.426 66.358)" fill="#6c63ff"/>
    <rect id="Rectangle_57" data-name="Rectangle 57" width="7.716" height="12.346" transform="translate(238.426 86.42)" fill="#6c63ff"/>
    <rect id="Rectangle_58" data-name="Rectangle 58" width="10.802" height="1.543" transform="translate(235.34 108.025)" fill="#6c63ff"/>
    <rect id="Rectangle_59" data-name="Rectangle 59" width="10.802" height="1.543" transform="translate(235.34 206.79)" fill="#6c63ff"/>
    <rect id="Rectangle_60" data-name="Rectangle 60" width="10.802" height="1.543" transform="translate(235.34 223.765)" fill="#6c63ff"/>
    <path id="Path_109" data-name="Path 109" d="M238.426,121.914V125h3.086v6.173h-3.086v3.086h7.716V121.914Z" fill="#6c63ff"/>
    <path id="Path_110" data-name="Path 110" d="M238.426,160.494v3.086h3.086v6.173h-3.086v3.087h7.716V160.494Z" fill="#6c63ff"/>
    <path id="Path_111" data-name="Path 111" d="M238.426,239.2v3.086h3.086v6.173h-3.086v3.086h7.716V239.2Z" fill="#6c63ff"/>
    <rect id="Rectangle_61" data-name="Rectangle 61" width="7.716" height="12.346" transform="translate(326.389 200.617)" fill="#6c63ff"/>
    <rect id="Rectangle_62" data-name="Rectangle 62" width="7.716" height="12.346" transform="translate(326.389 220.679)" fill="#6c63ff"/>
    <rect id="Rectangle_63" data-name="Rectangle 63" width="10.802" height="1.543" transform="translate(323.302 242.284)" fill="#6c63ff"/>
    <rect id="Rectangle_64" data-name="Rectangle 64" width="10.802" height="1.543" transform="translate(323.302 341.049)" fill="#6c63ff"/>
    <rect id="Rectangle_65" data-name="Rectangle 65" width="10.802" height="1.543" transform="translate(323.302 358.025)" fill="#6c63ff"/>
    <path id="Path_112" data-name="Path 112" d="M326.389,256.173v3.086h3.086v6.173h-3.086v3.087h7.716V256.173Z" fill="#6c63ff"/>
    <path id="Path_113" data-name="Path 113" d="M326.389,294.753v3.087h3.086v6.172h-3.086V307.1h7.716V294.753Z" fill="#6c63ff"/>
    <path id="Path_114" data-name="Path 114" d="M326.389,373.457v3.086h3.086v6.173h-3.086V385.8h7.716V373.457Z" fill="#6c63ff"/>
    <rect id="Rectangle_66" data-name="Rectangle 66" width="7.716" height="12.346" transform="translate(351.08 66.358)" fill="#6c63ff"/>
    <rect id="Rectangle_67" data-name="Rectangle 67" width="7.716" height="12.346" transform="translate(377.315 63.272)" fill="#6c63ff"/>
    <rect id="Rectangle_68" data-name="Rectangle 68" width="7.716" height="12.346" transform="translate(391.204 63.272)" fill="#6c63ff"/>
    <rect id="Rectangle_69" data-name="Rectangle 69" width="7.716" height="12.346" transform="translate(391.204 100.309)" fill="#6c63ff"/>
    <rect id="Rectangle_70" data-name="Rectangle 70" width="7.716" height="12.346" transform="translate(406.636 81.79)" fill="#6c63ff"/>
    <rect id="Rectangle_71" data-name="Rectangle 71" width="7.716" height="12.346" transform="translate(406.636 101.852)" fill="#6c63ff"/>
    <rect id="Rectangle_72" data-name="Rectangle 72" width="7.716" height="12.346" transform="translate(391.204 140.432)" fill="#6c63ff"/>
    <rect id="Rectangle_73" data-name="Rectangle 73" width="7.716" height="12.346" transform="translate(406.636 160.494)" fill="#6c63ff"/>
    <rect id="Rectangle_74" data-name="Rectangle 74" width="7.716" height="12.346" transform="translate(391.204 236.111)" fill="#6c63ff"/>
    <rect id="Rectangle_75" data-name="Rectangle 75" width="7.716" height="12.346" transform="translate(377.315 160.494)" fill="#6c63ff"/>
    <rect id="Rectangle_76" data-name="Rectangle 76" width="7.716" height="12.346" transform="translate(351.08 86.42)" fill="#6c63ff"/>
    <rect id="Rectangle_77" data-name="Rectangle 77" width="7.716" height="12.346" transform="translate(351.08 279.321)" fill="#6c63ff"/>
    <rect id="Rectangle_78" data-name="Rectangle 78" width="7.716" height="12.346" transform="translate(351.08 319.444)" fill="#6c63ff"/>
    <rect id="Rectangle_79" data-name="Rectangle 79" width="7.716" height="12.346" transform="translate(351.08 339.506)" fill="#6c63ff"/>
    <rect id="Rectangle_80" data-name="Rectangle 80" width="10.802" height="1.543" transform="translate(347.994 108.025)" fill="#6c63ff"/>
    <rect id="Rectangle_81" data-name="Rectangle 81" width="10.802" height="1.543" transform="translate(389.66 126.543)" fill="#6c63ff"/>
    <rect id="Rectangle_82" data-name="Rectangle 82" width="10.802" height="1.543" transform="translate(347.994 206.79)" fill="#6c63ff"/>
    <rect id="Rectangle_83" data-name="Rectangle 83" width="10.802" height="1.543" transform="translate(347.994 223.765)" fill="#6c63ff"/>
    <rect id="Rectangle_84" data-name="Rectangle 84" width="10.802" height="1.543" transform="translate(389.66 322.531)" fill="#6c63ff"/>
    <rect id="Rectangle_85" data-name="Rectangle 85" width="10.802" height="1.543" transform="translate(377.315 359.568)" fill="#6c63ff"/>
    <path id="Path_115" data-name="Path 115" d="M351.08,121.914V125h3.087v6.173H351.08v3.086H358.8V121.914Z" fill="#6c63ff"/>
    <path id="Path_116" data-name="Path 116" d="M377.315,100.309v3.086H380.4v6.173h-3.086v3.086h7.716V100.309Z" fill="#6c63ff"/>
    <path id="Path_117" data-name="Path 117" d="M406.636,120.37v3.087h3.086v6.173h-3.086v3.086h7.716V120.37Z" fill="#6c63ff"/>
    <path id="Path_118" data-name="Path 118" d="M406.636,180.556v3.086h3.086v6.173h-3.086V192.9h7.716V180.556Z" fill="#6c63ff"/>
    <path id="Path_119" data-name="Path 119" d="M406.636,200.617V203.7h3.086v6.173h-3.086v3.086h7.716V200.617Z" fill="#6c63ff"/>
    <path id="Path_120" data-name="Path 120" d="M406.636,138.889v3.086h3.086v6.173h-3.086v3.087h7.716V138.889Z" fill="#6c63ff"/>
    <path id="Path_121" data-name="Path 121" d="M391.2,81.79v3.087h3.086v6.172H391.2v3.087h7.716V81.79Z" fill="#6c63ff"/>
    <rect id="Rectangle_86" data-name="Rectangle 86" width="7.716" height="12.346" transform="translate(391.204 180.556)" fill="#6c63ff"/>
    <rect id="Rectangle_87" data-name="Rectangle 87" width="7.716" height="12.346" transform="translate(391.204 217.593)" fill="#6c63ff"/>
    <path id="Path_122" data-name="Path 122" d="M391.2,199.074v3.086h3.086v6.173H391.2v3.087h7.716V199.074Z" fill="#6c63ff"/>
    <path id="Path_123" data-name="Path 123" d="M377.315,120.37v3.087H380.4v6.173h-3.086v3.086h7.716V120.37Z" fill="#6c63ff"/>
    <path id="Path_124" data-name="Path 124" d="M377.315,140.432v3.087H380.4v6.172h-3.086v3.087h7.716V140.432Z" fill="#6c63ff"/>
    <rect id="Rectangle_88" data-name="Rectangle 88" width="7.716" height="12.346" transform="translate(377.315 200.617)" fill="#6c63ff"/>
    <path id="Path_125" data-name="Path 125" d="M377.315,180.556v3.086H380.4v6.173h-3.086V192.9h7.716V180.556Z" fill="#6c63ff"/>
    <rect id="Rectangle_89" data-name="Rectangle 89" width="7.716" height="12.346" transform="translate(377.315 240.741)" fill="#6c63ff"/>
    <path id="Path_126" data-name="Path 126" d="M377.315,220.679v3.086H380.4v6.173h-3.086v3.087h7.716V220.679Z" fill="#6c63ff"/>
    <rect id="Rectangle_90" data-name="Rectangle 90" width="7.716" height="12.346" transform="translate(377.315 280.864)" fill="#6c63ff"/>
    <rect id="Rectangle_91" data-name="Rectangle 91" width="7.716" height="12.346" transform="translate(391.204 277.778)" fill="#6c63ff"/>
    <path id="Path_127" data-name="Path 127" d="M377.315,260.8v3.087H380.4v6.173h-3.086v3.086h7.716V260.8Z" fill="#6c63ff"/>
    <path id="Path_128" data-name="Path 128" d="M406.636,260.8v3.087h3.086v6.173h-3.086v3.086h7.716V260.8Z" fill="#6c63ff"/>
    <rect id="Rectangle_92" data-name="Rectangle 92" width="7.716" height="12.346" transform="translate(485.34 81.79)" fill="#6c63ff"/>
    <rect id="Rectangle_93" data-name="Rectangle 93" width="7.716" height="12.346" transform="translate(485.34 101.852)" fill="#6c63ff"/>
    <rect id="Rectangle_94" data-name="Rectangle 94" width="7.716" height="12.346" transform="translate(485.34 160.494)" fill="#6c63ff"/>
    <path id="Path_129" data-name="Path 129" d="M485.34,120.37v3.087h3.086v6.173H485.34v3.086h7.716V120.37Z" fill="#6c63ff"/>
    <path id="Path_130" data-name="Path 130" d="M485.34,180.556v3.086h3.086v6.173H485.34V192.9h7.716V180.556Z" fill="#6c63ff"/>
    <path id="Path_131" data-name="Path 131" d="M485.34,200.617V203.7h3.086v6.173H485.34v3.086h7.716V200.617Z" fill="#6c63ff"/>
    <path id="Path_132" data-name="Path 132" d="M485.34,138.889v3.086h3.086v6.173H485.34v3.087h7.716V138.889Z" fill="#6c63ff"/>
    <path id="Path_133" data-name="Path 133" d="M485.34,260.8v3.087h3.086v6.173H485.34v3.086h7.716V260.8Z" fill="#6c63ff"/>
    <rect id="Rectangle_95" data-name="Rectangle 95" width="7.716" height="12.346" transform="translate(377.315 320.988)" fill="#6c63ff"/>
    <rect id="Rectangle_96" data-name="Rectangle 96" width="7.716" height="12.346" transform="translate(391.204 297.84)" fill="#6c63ff"/>
    <rect id="Rectangle_97" data-name="Rectangle 97" width="7.716" height="12.346" transform="translate(377.315 373.457)" fill="#6c63ff"/>
    <rect id="Rectangle_98" data-name="Rectangle 98" width="7.716" height="12.346" transform="translate(391.204 336.42)" fill="#6c63ff"/>
    <path id="Path_134" data-name="Path 134" d="M377.315,300.926v3.086H380.4v6.173h-3.086v3.087h7.716V300.926Z" fill="#6c63ff"/>
    <path id="Path_135" data-name="Path 135" d="M377.315,395.062v3.086H380.4v6.173h-3.086v3.086h7.716V395.062Z" fill="#6c63ff"/>
    <rect id="Rectangle_99" data-name="Rectangle 99" width="7.716" height="12.346" transform="translate(462.191 63.272)" fill="#6c63ff"/>
    <rect id="Rectangle_100" data-name="Rectangle 100" width="7.716" height="12.346" transform="translate(462.191 160.494)" fill="#6c63ff"/>
    <rect id="Rectangle_101" data-name="Rectangle 101" width="10.802" height="1.543" transform="translate(462.191 359.568)" fill="#6c63ff"/>
    <path id="Path_136" data-name="Path 136" d="M462.191,100.309v3.086h3.087v6.173h-3.087v3.086h7.716V100.309Z" fill="#6c63ff"/>
    <path id="Path_137" data-name="Path 137" d="M462.191,120.37v3.087h3.087v6.173h-3.087v3.086h7.716V120.37Z" fill="#6c63ff"/>
    <path id="Path_138" data-name="Path 138" d="M462.191,140.432v3.087h3.087v6.172h-3.087v3.087h7.716V140.432Z" fill="#6c63ff"/>
    <rect id="Rectangle_102" data-name="Rectangle 102" width="7.716" height="12.346" transform="translate(462.191 200.617)" fill="#6c63ff"/>
    <path id="Path_139" data-name="Path 139" d="M462.191,180.556v3.086h3.087v6.173h-3.087V192.9h7.716V180.556Z" fill="#6c63ff"/>
    <rect id="Rectangle_103" data-name="Rectangle 103" width="7.716" height="12.346" transform="translate(462.191 240.741)" fill="#6c63ff"/>
    <path id="Path_140" data-name="Path 140" d="M462.191,220.679v3.086h3.087v6.173h-3.087v3.087h7.716V220.679Z" fill="#6c63ff"/>
    <rect id="Rectangle_104" data-name="Rectangle 104" width="7.716" height="12.346" transform="translate(462.191 280.864)" fill="#6c63ff"/>
    <path id="Path_141" data-name="Path 141" d="M462.191,260.8v3.087h3.087v6.173h-3.087v3.086h7.716V260.8Z" fill="#6c63ff"/>
    <rect id="Rectangle_105" data-name="Rectangle 105" width="7.716" height="12.346" transform="translate(462.191 320.988)" fill="#6c63ff"/>
    <rect id="Rectangle_106" data-name="Rectangle 106" width="7.716" height="12.346" transform="translate(462.191 373.457)" fill="#6c63ff"/>
    <path id="Path_142" data-name="Path 142" d="M462.191,300.926v3.086h3.087v6.173h-3.087v3.087h7.716V300.926Z" fill="#6c63ff"/>
    <path id="Path_143" data-name="Path 143" d="M462.191,395.062v3.086h3.087v6.173h-3.087v3.086h7.716V395.062Z" fill="#6c63ff"/>
    <rect id="Rectangle_107" data-name="Rectangle 107" width="7.716" height="12.346" transform="translate(499.228 63.272)" fill="#6c63ff"/>
    <rect id="Rectangle_108" data-name="Rectangle 108" width="7.716" height="12.346" transform="translate(499.228 160.494)" fill="#6c63ff"/>
    <rect id="Rectangle_109" data-name="Rectangle 109" width="10.802" height="1.543" transform="translate(499.228 359.568)" fill="#6c63ff"/>
    <path id="Path_144" data-name="Path 144" d="M499.228,100.309v3.086h3.087v6.173h-3.087v3.086h7.716V100.309Z" fill="#6c63ff"/>
    <path id="Path_145" data-name="Path 145" d="M499.228,120.37v3.087h3.087v6.173h-3.087v3.086h7.716V120.37Z" fill="#6c63ff"/>
    <path id="Path_146" data-name="Path 146" d="M499.228,140.432v3.087h3.087v6.172h-3.087v3.087h7.716V140.432Z" fill="#6c63ff"/>
    <rect id="Rectangle_110" data-name="Rectangle 110" width="7.716" height="12.346" transform="translate(499.228 200.617)" fill="#6c63ff"/>
    <path id="Path_147" data-name="Path 147" d="M499.228,180.556v3.086h3.087v6.173h-3.087V192.9h7.716V180.556Z" fill="#6c63ff"/>
    <rect id="Rectangle_111" data-name="Rectangle 111" width="7.716" height="12.346" transform="translate(499.228 240.741)" fill="#6c63ff"/>
    <path id="Path_148" data-name="Path 148" d="M499.228,220.679v3.086h3.087v6.173h-3.087v3.087h7.716V220.679Z" fill="#6c63ff"/>
    <rect id="Rectangle_112" data-name="Rectangle 112" width="7.716" height="12.346" transform="translate(499.228 280.864)" fill="#6c63ff"/>
    <path id="Path_149" data-name="Path 149" d="M499.228,260.8v3.087h3.087v6.173h-3.087v3.086h7.716V260.8Z" fill="#6c63ff"/>
    <rect id="Rectangle_113" data-name="Rectangle 113" width="7.716" height="12.346" transform="translate(499.228 320.988)" fill="#6c63ff"/>
    <rect id="Rectangle_114" data-name="Rectangle 114" width="7.716" height="12.346" transform="translate(499.228 373.457)" fill="#6c63ff"/>
    <path id="Path_150" data-name="Path 150" d="M499.228,300.926v3.086h3.087v6.173h-3.087v3.087h7.716V300.926Z" fill="#6c63ff"/>
    <path id="Path_151" data-name="Path 151" d="M499.228,395.062v3.086h3.087v6.173h-3.087v3.086h7.716V395.062Z" fill="#6c63ff"/>
    <path id="Path_152" data-name="Path 152" d="M391.2,373.457v3.086h3.086v6.173H391.2V385.8h7.716V373.457Z" fill="#6c63ff"/>
    <path id="Path_153" data-name="Path 153" d="M391.2,393.519v3.086h3.086v6.173H391.2v3.086h7.716V393.519Z" fill="#6c63ff"/>
    <path id="Path_154" data-name="Path 154" d="M351.08,160.494v3.086h3.087v6.173H351.08v3.087H358.8V160.494Z" fill="#6c63ff"/>
    <path id="Path_155" data-name="Path 155" d="M351.08,239.2v3.086h3.087v6.173H351.08v3.086H358.8V239.2Z" fill="#6c63ff"/>
    <path id="Path_156" data-name="Path 156" d="M351.08,259.259v3.087h3.087v6.173H351.08v3.086H358.8V259.259Z" fill="#6c63ff"/>
    <path id="Path_157" data-name="Path 157" d="M351.08,299.383v3.086h3.087v6.173H351.08v3.086H358.8V299.383Z" fill="#6c63ff"/>
    <path id="Path_158" data-name="Path 158" d="M351.08,356.481v3.087h3.087v6.173H351.08v3.086H358.8V356.481Z" fill="#6c63ff"/>
    <path id="Path_159" data-name="Path 159" d="M351.08,373.457v3.086h3.087v6.173H351.08V385.8H358.8V373.457Z" fill="#6c63ff"/>
    <rect id="Rectangle_115" data-name="Rectangle 115" width="7.716" height="12.346" transform="translate(431.327 66.358)" fill="#6c63ff"/>
    <rect id="Rectangle_116" data-name="Rectangle 116" width="7.716" height="12.346" transform="translate(431.327 86.42)" fill="#6c63ff"/>
    <rect id="Rectangle_117" data-name="Rectangle 117" width="10.802" height="1.543" transform="translate(428.241 108.025)" fill="#6c63ff"/>
    <rect id="Rectangle_118" data-name="Rectangle 118" width="10.802" height="1.543" transform="translate(428.241 206.79)" fill="#6c63ff"/>
    <rect id="Rectangle_119" data-name="Rectangle 119" width="10.802" height="1.543" transform="translate(428.241 223.765)" fill="#6c63ff"/>
    <path id="Path_160" data-name="Path 160" d="M431.327,121.914V125h3.087v6.173h-3.087v3.086h7.716V121.914Z" fill="#6c63ff"/>
    <path id="Path_161" data-name="Path 161" d="M431.327,160.494v3.086h3.087v6.173h-3.087v3.087h7.716V160.494Z" fill="#6c63ff"/>
    <path id="Path_162" data-name="Path 162" d="M431.327,239.2v3.086h3.087v6.173h-3.087v3.086h7.716V239.2Z" fill="#6c63ff"/>
    <rect id="Rectangle_120" data-name="Rectangle 120" width="7.716" height="12.346" transform="translate(519.29 200.617)" fill="#6c63ff"/>
    <rect id="Rectangle_121" data-name="Rectangle 121" width="7.716" height="12.346" transform="translate(519.29 220.679)" fill="#6c63ff"/>
    <rect id="Rectangle_122" data-name="Rectangle 122" width="10.802" height="1.543" transform="translate(516.204 242.284)" fill="#6c63ff"/>
    <rect id="Rectangle_123" data-name="Rectangle 123" width="10.802" height="1.543" transform="translate(516.204 341.049)" fill="#6c63ff"/>
    <rect id="Rectangle_124" data-name="Rectangle 124" width="10.802" height="1.543" transform="translate(516.204 358.025)" fill="#6c63ff"/>
    <path id="Path_163" data-name="Path 163" d="M519.29,256.173v3.086h3.087v6.173H519.29v3.087h7.716V256.173Z" fill="#6c63ff"/>
    <path id="Path_164" data-name="Path 164" d="M519.29,294.753v3.087h3.087v6.172H519.29V307.1h7.716V294.753Z" fill="#6c63ff"/>
    <path id="Path_165" data-name="Path 165" d="M519.29,373.457v3.086h3.087v6.173H519.29V385.8h7.716V373.457Z" fill="#6c63ff"/>
    <rect id="Rectangle_125" data-name="Rectangle 125" width="7.716" height="12.346" transform="translate(543.982 66.358)" fill="#6c63ff"/>
    <rect id="Rectangle_126" data-name="Rectangle 126" width="7.716" height="12.346" transform="translate(570.216 63.272)" fill="#6c63ff"/>
    <rect id="Rectangle_127" data-name="Rectangle 127" width="7.716" height="12.346" transform="translate(584.105 63.272)" fill="#6c63ff"/>
    <rect id="Rectangle_128" data-name="Rectangle 128" width="7.716" height="12.346" transform="translate(584.105 100.309)" fill="#6c63ff"/>
    <rect id="Rectangle_129" data-name="Rectangle 129" width="7.716" height="12.346" transform="translate(599.537 81.79)" fill="#6c63ff"/>
    <rect id="Rectangle_130" data-name="Rectangle 130" width="7.716" height="12.346" transform="translate(599.537 101.852)" fill="#6c63ff"/>
    <rect id="Rectangle_131" data-name="Rectangle 131" width="7.716" height="12.346" transform="translate(584.105 140.432)" fill="#6c63ff"/>
    <rect id="Rectangle_132" data-name="Rectangle 132" width="7.716" height="12.346" transform="translate(599.537 160.494)" fill="#6c63ff"/>
    <rect id="Rectangle_133" data-name="Rectangle 133" width="7.716" height="12.346" transform="translate(584.105 236.111)" fill="#6c63ff"/>
    <rect id="Rectangle_134" data-name="Rectangle 134" width="7.716" height="12.346" transform="translate(570.216 160.494)" fill="#6c63ff"/>
    <rect id="Rectangle_135" data-name="Rectangle 135" width="7.716" height="12.346" transform="translate(543.982 86.42)" fill="#6c63ff"/>
    <rect id="Rectangle_136" data-name="Rectangle 136" width="7.716" height="12.346" transform="translate(543.982 279.321)" fill="#6c63ff"/>
    <rect id="Rectangle_137" data-name="Rectangle 137" width="7.716" height="12.346" transform="translate(543.982 319.444)" fill="#6c63ff"/>
    <rect id="Rectangle_138" data-name="Rectangle 138" width="7.716" height="12.346" transform="translate(543.982 339.506)" fill="#6c63ff"/>
    <rect id="Rectangle_139" data-name="Rectangle 139" width="10.802" height="1.543" transform="translate(540.895 108.025)" fill="#6c63ff"/>
    <rect id="Rectangle_140" data-name="Rectangle 140" width="10.802" height="1.543" transform="translate(582.562 126.543)" fill="#6c63ff"/>
    <rect id="Rectangle_141" data-name="Rectangle 141" width="10.802" height="1.543" transform="translate(540.895 206.79)" fill="#6c63ff"/>
    <rect id="Rectangle_142" data-name="Rectangle 142" width="10.802" height="1.543" transform="translate(540.895 223.765)" fill="#6c63ff"/>
    <rect id="Rectangle_143" data-name="Rectangle 143" width="10.802" height="1.543" transform="translate(582.562 322.531)" fill="#6c63ff"/>
    <rect id="Rectangle_144" data-name="Rectangle 144" width="10.802" height="1.543" transform="translate(570.216 359.568)" fill="#6c63ff"/>
    <path id="Path_166" data-name="Path 166" d="M543.981,121.914V125h3.087v6.173h-3.087v3.086H551.7V121.914Z" fill="#6c63ff"/>
    <path id="Path_167" data-name="Path 167" d="M570.216,100.309v3.086H573.3v6.173h-3.086v3.086h7.716V100.309Z" fill="#6c63ff"/>
    <path id="Path_168" data-name="Path 168" d="M599.537,120.37v3.087h3.086v6.173h-3.086v3.086h7.716V120.37Z" fill="#6c63ff"/>
    <path id="Path_169" data-name="Path 169" d="M599.537,180.556v3.086h3.086v6.173h-3.086V192.9h7.716V180.556Z" fill="#6c63ff"/>
    <path id="Path_170" data-name="Path 170" d="M599.537,200.617V203.7h3.086v6.173h-3.086v3.086h7.716V200.617Z" fill="#6c63ff"/>
    <path id="Path_171" data-name="Path 171" d="M599.537,138.889v3.086h3.086v6.173h-3.086v3.087h7.716V138.889Z" fill="#6c63ff"/>
    <path id="Path_172" data-name="Path 172" d="M584.1,81.79v3.087h3.086v6.172H584.1v3.087h7.716V81.79Z" fill="#6c63ff"/>
    <rect id="Rectangle_145" data-name="Rectangle 145" width="7.716" height="12.346" transform="translate(584.105 180.556)" fill="#6c63ff"/>
    <rect id="Rectangle_146" data-name="Rectangle 146" width="7.716" height="12.346" transform="translate(584.105 217.593)" fill="#6c63ff"/>
    <path id="Path_173" data-name="Path 173" d="M584.1,199.074v3.086h3.086v6.173H584.1v3.087h7.716V199.074Z" fill="#6c63ff"/>
    <path id="Path_174" data-name="Path 174" d="M570.216,120.37v3.087H573.3v6.173h-3.086v3.086h7.716V120.37Z" fill="#6c63ff"/>
    <path id="Path_175" data-name="Path 175" d="M570.216,140.432v3.087H573.3v6.172h-3.086v3.087h7.716V140.432Z" fill="#6c63ff"/>
    <rect id="Rectangle_147" data-name="Rectangle 147" width="7.716" height="12.346" transform="translate(570.216 200.617)" fill="#6c63ff"/>
    <path id="Path_176" data-name="Path 176" d="M570.216,180.556v3.086H573.3v6.173h-3.086V192.9h7.716V180.556Z" fill="#6c63ff"/>
    <rect id="Rectangle_148" data-name="Rectangle 148" width="7.716" height="12.346" transform="translate(570.216 240.741)" fill="#6c63ff"/>
    <path id="Path_177" data-name="Path 177" d="M570.216,220.679v3.086H573.3v6.173h-3.086v3.087h7.716V220.679Z" fill="#6c63ff"/>
    <rect id="Rectangle_149" data-name="Rectangle 149" width="7.716" height="12.346" transform="translate(570.216 280.864)" fill="#6c63ff"/>
    <rect id="Rectangle_150" data-name="Rectangle 150" width="7.716" height="12.346" transform="translate(584.105 277.778)" fill="#6c63ff"/>
    <path id="Path_178" data-name="Path 178" d="M570.216,260.8v3.087H573.3v6.173h-3.086v3.086h7.716V260.8Z" fill="#6c63ff"/>
    <path id="Path_179" data-name="Path 179" d="M599.537,260.8v3.087h3.086v6.173h-3.086v3.086h7.716V260.8Z" fill="#6c63ff"/>
    <rect id="Rectangle_151" data-name="Rectangle 151" width="7.716" height="12.346" transform="translate(678.241 81.79)" fill="#6c63ff"/>
    <rect id="Rectangle_152" data-name="Rectangle 152" width="7.716" height="12.346" transform="translate(678.241 101.852)" fill="#6c63ff"/>
    <rect id="Rectangle_153" data-name="Rectangle 153" width="7.716" height="12.346" transform="translate(678.241 160.494)" fill="#6c63ff"/>
    <path id="Path_180" data-name="Path 180" d="M678.241,120.37v3.087h3.086v6.173h-3.086v3.086h7.716V120.37Z" fill="#6c63ff"/>
    <path id="Path_181" data-name="Path 181" d="M678.241,180.556v3.086h3.086v6.173h-3.086V192.9h7.716V180.556Z" fill="#6c63ff"/>
    <path id="Path_182" data-name="Path 182" d="M678.241,200.617V203.7h3.086v6.173h-3.086v3.086h7.716V200.617Z" fill="#6c63ff"/>
    <path id="Path_183" data-name="Path 183" d="M678.241,138.889v3.086h3.086v6.173h-3.086v3.087h7.716V138.889Z" fill="#6c63ff"/>
    <path id="Path_184" data-name="Path 184" d="M678.241,260.8v3.087h3.086v6.173h-3.086v3.086h7.716V260.8Z" fill="#6c63ff"/>
    <rect id="Rectangle_154" data-name="Rectangle 154" width="7.716" height="12.346" transform="translate(570.216 320.988)" fill="#6c63ff"/>
    <rect id="Rectangle_155" data-name="Rectangle 155" width="7.716" height="12.346" transform="translate(584.105 297.84)" fill="#6c63ff"/>
    <rect id="Rectangle_156" data-name="Rectangle 156" width="7.716" height="12.346" transform="translate(570.216 373.457)" fill="#6c63ff"/>
    <rect id="Rectangle_157" data-name="Rectangle 157" width="7.716" height="12.346" transform="translate(584.105 336.42)" fill="#6c63ff"/>
    <path id="Path_185" data-name="Path 185" d="M570.216,300.926v3.086H573.3v6.173h-3.086v3.087h7.716V300.926Z" fill="#6c63ff"/>
    <path id="Path_186" data-name="Path 186" d="M570.216,395.062v3.086H573.3v6.173h-3.086v3.086h7.716V395.062Z" fill="#6c63ff"/>
    <rect id="Rectangle_158" data-name="Rectangle 158" width="7.716" height="12.346" transform="translate(655.093 63.272)" fill="#6c63ff"/>
    <rect id="Rectangle_159" data-name="Rectangle 159" width="7.716" height="12.346" transform="translate(655.093 160.494)" fill="#6c63ff"/>
    <rect id="Rectangle_160" data-name="Rectangle 160" width="10.802" height="1.543" transform="translate(655.093 359.568)" fill="#6c63ff"/>
    <path id="Path_187" data-name="Path 187" d="M655.093,100.309v3.086h3.086v6.173h-3.086v3.086h7.716V100.309Z" fill="#6c63ff"/>
    <path id="Path_188" data-name="Path 188" d="M655.093,120.37v3.087h3.086v6.173h-3.086v3.086h7.716V120.37Z" fill="#6c63ff"/>
    <path id="Path_189" data-name="Path 189" d="M655.093,140.432v3.087h3.086v6.172h-3.086v3.087h7.716V140.432Z" fill="#6c63ff"/>
    <rect id="Rectangle_161" data-name="Rectangle 161" width="7.716" height="12.346" transform="translate(655.093 200.617)" fill="#6c63ff"/>
    <path id="Path_190" data-name="Path 190" d="M655.093,180.556v3.086h3.086v6.173h-3.086V192.9h7.716V180.556Z" fill="#6c63ff"/>
    <rect id="Rectangle_162" data-name="Rectangle 162" width="7.716" height="12.346" transform="translate(655.093 240.741)" fill="#6c63ff"/>
    <path id="Path_191" data-name="Path 191" d="M655.093,220.679v3.086h3.086v6.173h-3.086v3.087h7.716V220.679Z" fill="#6c63ff"/>
    <rect id="Rectangle_163" data-name="Rectangle 163" width="7.716" height="12.346" transform="translate(655.093 280.864)" fill="#6c63ff"/>
    <path id="Path_192" data-name="Path 192" d="M655.093,260.8v3.087h3.086v6.173h-3.086v3.086h7.716V260.8Z" fill="#6c63ff"/>
    <rect id="Rectangle_164" data-name="Rectangle 164" width="7.716" height="12.346" transform="translate(655.093 320.988)" fill="#6c63ff"/>
    <rect id="Rectangle_165" data-name="Rectangle 165" width="7.716" height="12.346" transform="translate(655.093 373.457)" fill="#6c63ff"/>
    <path id="Path_193" data-name="Path 193" d="M655.093,300.926v3.086h3.086v6.173h-3.086v3.087h7.716V300.926Z" fill="#6c63ff"/>
    <path id="Path_194" data-name="Path 194" d="M655.093,395.062v3.086h3.086v6.173h-3.086v3.086h7.716V395.062Z" fill="#6c63ff"/>
    <rect id="Rectangle_166" data-name="Rectangle 166" width="7.716" height="12.346" transform="translate(692.13 63.272)" fill="#6c63ff"/>
    <rect id="Rectangle_167" data-name="Rectangle 167" width="7.716" height="12.346" transform="translate(692.13 160.494)" fill="#6c63ff"/>
    <rect id="Rectangle_168" data-name="Rectangle 168" width="10.802" height="1.543" transform="translate(692.13 359.568)" fill="#6c63ff"/>
    <path id="Path_195" data-name="Path 195" d="M692.13,100.309v3.086h3.086v6.173H692.13v3.086h7.716V100.309Z" fill="#6c63ff"/>
    <path id="Path_196" data-name="Path 196" d="M692.13,120.37v3.087h3.086v6.173H692.13v3.086h7.716V120.37Z" fill="#6c63ff"/>
    <path id="Path_197" data-name="Path 197" d="M692.13,140.432v3.087h3.086v6.172H692.13v3.087h7.716V140.432Z" fill="#6c63ff"/>
    <rect id="Rectangle_169" data-name="Rectangle 169" width="7.716" height="12.346" transform="translate(692.13 200.617)" fill="#6c63ff"/>
    <path id="Path_198" data-name="Path 198" d="M692.13,180.556v3.086h3.086v6.173H692.13V192.9h7.716V180.556Z" fill="#6c63ff"/>
    <rect id="Rectangle_170" data-name="Rectangle 170" width="7.716" height="12.346" transform="translate(692.13 240.741)" fill="#6c63ff"/>
    <path id="Path_199" data-name="Path 199" d="M692.13,220.679v3.086h3.086v6.173H692.13v3.087h7.716V220.679Z" fill="#6c63ff"/>
    <rect id="Rectangle_171" data-name="Rectangle 171" width="7.716" height="12.346" transform="translate(692.13 280.864)" fill="#6c63ff"/>
    <path id="Path_200" data-name="Path 200" d="M692.13,260.8v3.087h3.086v6.173H692.13v3.086h7.716V260.8Z" fill="#6c63ff"/>
    <rect id="Rectangle_172" data-name="Rectangle 172" width="7.716" height="12.346" transform="translate(692.13 320.988)" fill="#6c63ff"/>
    <rect id="Rectangle_173" data-name="Rectangle 173" width="7.716" height="12.346" transform="translate(692.13 373.457)" fill="#6c63ff"/>
    <path id="Path_201" data-name="Path 201" d="M692.13,300.926v3.086h3.086v6.173H692.13v3.087h7.716V300.926Z" fill="#6c63ff"/>
    <path id="Path_202" data-name="Path 202" d="M692.13,395.062v3.086h3.086v6.173H692.13v3.086h7.716V395.062Z" fill="#6c63ff"/>
    <path id="Path_203" data-name="Path 203" d="M584.1,373.457v3.086h3.086v6.173H584.1V385.8h7.716V373.457Z" fill="#6c63ff"/>
    <path id="Path_204" data-name="Path 204" d="M584.1,393.519v3.086h3.086v6.173H584.1v3.086h7.716V393.519Z" fill="#6c63ff"/>
    <path id="Path_205" data-name="Path 205" d="M543.981,160.494v3.086h3.087v6.173h-3.087v3.087H551.7V160.494Z" fill="#6c63ff"/>
    <path id="Path_206" data-name="Path 206" d="M543.981,239.2v3.086h3.087v6.173h-3.087v3.086H551.7V239.2Z" fill="#6c63ff"/>
    <path id="Path_207" data-name="Path 207" d="M543.981,259.259v3.087h3.087v6.173h-3.087v3.086H551.7V259.259Z" fill="#6c63ff"/>
    <path id="Path_208" data-name="Path 208" d="M543.981,299.383v3.086h3.087v6.173h-3.087v3.086H551.7V299.383Z" fill="#6c63ff"/>
    <path id="Path_209" data-name="Path 209" d="M543.981,356.481v3.087h3.087v6.173h-3.087v3.086H551.7V356.481Z" fill="#6c63ff"/>
    <path id="Path_210" data-name="Path 210" d="M543.981,373.457v3.086h3.087v6.173h-3.087V385.8H551.7V373.457Z" fill="#6c63ff"/>
    <rect id="Rectangle_174" data-name="Rectangle 174" width="7.716" height="12.346" transform="translate(624.228 66.358)" fill="#6c63ff"/>
    <rect id="Rectangle_175" data-name="Rectangle 175" width="7.716" height="12.346" transform="translate(624.228 86.42)" fill="#6c63ff"/>
    <rect id="Rectangle_176" data-name="Rectangle 176" width="10.802" height="1.543" transform="translate(621.142 108.025)" fill="#6c63ff"/>
    <rect id="Rectangle_177" data-name="Rectangle 177" width="10.802" height="1.543" transform="translate(621.142 206.79)" fill="#6c63ff"/>
    <rect id="Rectangle_178" data-name="Rectangle 178" width="10.802" height="1.543" transform="translate(621.142 223.765)" fill="#6c63ff"/>
    <path id="Path_211" data-name="Path 211" d="M624.228,121.914V125h3.087v6.173h-3.087v3.086h7.716V121.914Z" fill="#6c63ff"/>
    <path id="Path_212" data-name="Path 212" d="M624.228,160.494v3.086h3.087v6.173h-3.087v3.087h7.716V160.494Z" fill="#6c63ff"/>
    <path id="Path_213" data-name="Path 213" d="M624.228,239.2v3.086h3.087v6.173h-3.087v3.086h7.716V239.2Z" fill="#6c63ff"/>
    <rect id="Rectangle_179" data-name="Rectangle 179" width="7.716" height="12.346" transform="translate(712.191 200.617)" fill="#6c63ff"/>
    <rect id="Rectangle_180" data-name="Rectangle 180" width="7.716" height="12.346" transform="translate(712.191 220.679)" fill="#6c63ff"/>
    <rect id="Rectangle_181" data-name="Rectangle 181" width="10.802" height="1.543" transform="translate(709.105 242.284)" fill="#6c63ff"/>
    <rect id="Rectangle_182" data-name="Rectangle 182" width="10.802" height="1.543" transform="translate(709.105 341.049)" fill="#6c63ff"/>
    <rect id="Rectangle_183" data-name="Rectangle 183" width="10.802" height="1.543" transform="translate(709.105 358.025)" fill="#6c63ff"/>
    <path id="Path_214" data-name="Path 214" d="M712.191,256.173v3.086h3.087v6.173h-3.087v3.087h7.716V256.173Z" fill="#6c63ff"/>
    <path id="Path_215" data-name="Path 215" d="M712.191,294.753v3.087h3.087v6.172h-3.087V307.1h7.716V294.753Z" fill="#6c63ff"/>
    <path id="Path_216" data-name="Path 216" d="M712.191,373.457v3.086h3.087v6.173h-3.087V385.8h7.716V373.457Z" fill="#6c63ff"/>
    <circle id="Ellipse_6" data-name="Ellipse 6" cx="3" cy="3" r="3" transform="translate(477 223.84)" fill="#f2f2f2"/>
    <rect id="Rectangle_185" data-name="Rectangle 185" width="2" height="47" transform="translate(479 226.84)" fill="#3f3d56"/>
  </g>
</svg>
