<svg xmlns="http://www.w3.org/2000/svg" xmlns:xlink="http://www.w3.org/1999/xlink" width="719" height="719" viewBox="0 0 719 719">
  <defs>
    <filter id="Union_1" x="9.102" y="173.324" width="188.83" height="378.353" filterUnits="userSpaceOnUse">
      <feOffset dy="3" input="SourceAlpha"/>
      <feGaussianBlur stdDeviation="3" result="blur"/>
      <feFlood flood-opacity="0.161"/>
      <feComposite operator="in" in2="blur"/>
      <feComposite in="SourceGraphic"/>
    </filter>
    <filter id="Union_4" x="135.653" y="173.324" width="188.83" height="378.353" filterUnits="userSpaceOnUse">
      <feOffset dy="3" input="SourceAlpha"/>
      <feGaussianBlur stdDeviation="3" result="blur-2"/>
      <feFlood flood-opacity="0.161"/>
      <feComposite operator="in" in2="blur-2"/>
      <feComposite in="SourceGraphic"/>
    </filter>
    <filter id="Union_2" x="334.451" y="35.988" width="375.447" height="653.024" filterUnits="userSpaceOnUse">
      <feOffset dy="3" input="SourceAlpha"/>
      <feGaussianBlur stdDeviation="3" result="blur-3"/>
      <feFlood flood-opacity="0.161"/>
      <feComposite operator="in" in2="blur-3"/>
      <feComposite in="SourceGraphic"/>
    </filter>
    <clipPath id="clip-codepur-nav">
      <rect width="719" height="719"/>
    </clipPath>
  </defs>
  <g id="codepur-nav" clip-path="url(#clip-codepur-nav)">
    <g transform="matrix(1, 0, 0, 1, 0, 0)" filter="url(#Union_1)">
      <path id="Union_1-2" data-name="Union 1" d="M146.6,356.306,8.078,206.926C2.8,201.232-.11,190.811,0,180.177c-.113-10.634,2.795-21.056,8.075-26.75L146.6,4.047c7.725-8.331,17.6-3.387,22.063,11.042s1.813,32.879-5.911,41.209L47.877,180.177,162.752,304.055c7.725,8.33,10.372,26.78,5.912,41.209-2.991,9.678-8.421,15.088-14,15.088C151.921,360.353,149.145,359.049,146.6,356.306Z" transform="translate(18.1 179.32)" fill="#2f4858"/>
    </g>
    <g transform="matrix(1, 0, 0, 1, 0, 0)" filter="url(#Union_4)">
      <path id="Union_4-2" data-name="Union 4" d="M146.6,356.306,8.078,206.926C2.8,201.232-.11,190.811,0,180.177c-.113-10.634,2.795-21.056,8.075-26.75L146.6,4.047c7.725-8.331,17.6-3.387,22.063,11.042s1.813,32.879-5.911,41.209L47.877,180.177,162.752,304.055c7.725,8.33,10.372,26.78,5.912,41.209-2.991,9.678-8.421,15.088-14,15.088C151.921,360.353,149.145,359.049,146.6,356.306Z" transform="translate(144.65 179.32)" fill="#2f4858"/>
    </g>
    <g transform="matrix(1, 0, 0, 1, 0, 0)" filter="url(#Union_2)">
      <path id="Union_2-2" data-name="Union 2" d="M-1107.726,621.418l-289.847-263.242c-11.049-10.034-17.132-28.4-16.9-47.139-.236-18.74,5.848-37.1,16.9-47.139L-1107.726.656c16.164-14.681,36.833-5.969,46.164,19.458s3.795,57.94-12.369,72.62l-240.365,218.3,240.365,218.3c16.164,14.68,21.7,47.193,12.37,72.62-6.259,17.054-17.62,26.589-29.3,26.589C-1096.593,628.549-1102.4,626.251-1107.726,621.418Z" transform="translate(-713.58 670.54) rotate(180)" fill="#845EC2"/>
    </g>
  </g>
</svg>
