<svg xmlns="http://www.w3.org/2000/svg" xmlns:xlink="http://www.w3.org/1999/xlink" width="650" height="398" viewBox="0 0 650 398">
  <defs>
    <clipPath id="clip-code">
      <rect width="650" height="398"/>
    </clipPath>
  </defs>
  <g id="code" clip-path="url(#clip-code)">
    <rect width="650" height="398" fill="#fff"/>
    <g id="JavaScript_frameworks-pana" data-name="JavaScript frameworks-pana" transform="translate(-49.58 -47)">
      <g id="freepik--background-simple--inject-3">
        <path id="Path_216" data-name="Path 216" d="M335.06,392.73C399.73,395.4,474.71,380.5,531,348.48s96.89-95.57,103-160c4.36-46.07-5.79-94.92-41.59-124.25S491.3,30,452.89,55.83c-41.47,27.86-59.15,85.58-105.44,104.38-38.47,15.62-82.44-1.7-123.52,4.3-45,6.58-84.19,45.28-88.42,90.57-2.5,26.69,3.7,55.3,24.05,77.41,21.3,23.15,34.17,30.45,63.5,45.08C249.48,390.74,292.38,391,335.06,392.73Z" fill="#e0e0e0"/>
      </g>
      <g id="freepik--JavaScript--inject-3">
        <path id="Path_217" data-name="Path 217" d="M216.18,224.08H95.65V74.18l92.2.27,28.33,30.77Z" fill="#ebebeb"/>
        <path id="Path_218" data-name="Path 218" d="M131.7,159.7c-.15.15-2.15-1.66-5.26-4.7s-7.34-7.32-11.94-12.12l-.51-.54.51-.54v-.05c4.58-4.83,8.79-9.15,11.9-12.22s5.1-4.9,5.25-4.75-1.55,2.24-4.45,5.51-7,7.7-11.57,12.54h-.05V141.8c4.6,4.8,8.69,9.2,11.6,12.44S131.86,159.55,131.7,159.7Z" fill="#263238"/>
        <path id="Path_219" data-name="Path 219" d="M180.07,124.78c.16-.15,2.16,1.66,5.27,4.7s7.34,7.32,11.93,12.12l.52.54-.51.54h-.05c-4.59,4.84-8.8,9.15-11.9,12.22s-5.1,4.9-5.26,4.75,1.56-2.24,4.46-5.51,7-7.7,11.56-12.53v1.02c-4.59-4.8-8.69-9.2-11.6-12.43S179.92,124.93,180.07,124.78Z" fill="#263238"/>
        <path id="Path_220" data-name="Path 220" d="M141.22,165.21c-.36-.22,5.89-11.12,14-24.34s14.93-23.75,15.3-23.52-5.88,11.12-14,24.34S141.59,165.44,141.22,165.21Z" fill="#263238"/>
        <path id="Path_221" data-name="Path 221" d="M187.84,74.46l-.11,25.11a6.46,6.46,0,0,0,6.65,6.48l21.8-.81Z" fill="#e0e0e0"/>
        <rect id="Rectangle_6" data-name="Rectangle 6" width="53.45" height="32.49" transform="translate(81.58 175.72)" fill="#845EC2"/>
        <path id="Path_222" data-name="Path 222" d="M96.77,198.61,98.16,197a4.19,4.19,0,0,0,3.5,2c1.89,0,2.87-1.15,2.87-3.41v-9.42H98.47v-2.08h8.44v11.38c0,3.74-1.82,5.59-5.25,5.59a5.87,5.87,0,0,1-4.89-2.45Z" fill="#fff"/>
        <path id="Path_223" data-name="Path 223" d="M110.26,198.92l.89-1.87a8.6,8.6,0,0,0,5.53,1.94c2.91,0,4.15-1.13,4.15-2.59,0-4.1-10.16-1.51-10.16-7.74,0-2.59,2-4.8,6.42-4.8a9.88,9.88,0,0,1,5.4,1.49l-.8,1.92a8.6,8.6,0,0,0-4.6-1.37c-2.85,0-4.07,1.2-4.07,2.66,0,4.1,10.16,1.54,10.16,7.7,0,2.56-2.06,4.77-6.5,4.77A10,10,0,0,1,110.26,198.92Z" fill="#fff"/>
      </g>
      <g id="freepik--Angular--inject-3">
        <path id="Path_224" data-name="Path 224" d="M318.9,83.05a7.92,7.92,0,0,0-4.37,7.17l.38,59.47a7.921,7.921,0,0,0,3.842,6.791L368.13,185.91h0l47.27-30.65a7.93,7.93,0,0,0,3.59-6.73l-.39-62.09a7.93,7.93,0,0,0-4.72-7.24L367.34,59.08Z" fill="#845EC2"/>
        <g id="Group_7" data-name="Group 7" opacity="0.2">
          <path id="Path_225" data-name="Path 225" d="M367.34,59.08l.8,126.83,47.21-30.59a7.93,7.93,0,0,0,3.66-6.7l-.37-62.34A7.73,7.73,0,0,0,414,79.21Z"/>
        </g>
        <path id="Path_226" data-name="Path 226" d="M381.16,130.3l-28.8.18-5.87,13.92h-8l24.2-55.67h7.66l25,55.36-8.13.06Zm-2.75-6.3L366.55,96.84,355,124.12Z" fill="#fff"/>
      </g>
      <g id="freepik--Screen--inject-3">
        <rect id="Rectangle_7" data-name="Rectangle 7" width="271.84" height="158.4" transform="translate(344.86 156.27)" fill="#263238"/>
        <path id="Path_227" data-name="Path 227" d="M366.12,306.7c-.14,0-.26-32.39-.26-72.34S366,162,366.12,162s.26,32.38.26,72.34S366.27,306.7,366.12,306.7Z" fill="#e0e0e0"/>
        <path id="Path_228" data-name="Path 228" d="M360.53,168.12a39.07,39.07,0,0,1-9,0,39.071,39.071,0,0,1,9,0Z" fill="#e0e0e0"/>
        <path id="Path_229" data-name="Path 229" d="M360.53,177.65a39.068,39.068,0,0,1-9,0,39.07,39.07,0,0,1,9,0Z" fill="#e0e0e0"/>
        <path id="Path_230" data-name="Path 230" d="M360.53,187.19a39.068,39.068,0,0,1-9,0,39.07,39.07,0,0,1,9,0Z" fill="#e0e0e0"/>
        <path id="Path_231" data-name="Path 231" d="M360.53,196.72a39.07,39.07,0,0,1-9,0,39.069,39.069,0,0,1,9,0Z" fill="#e0e0e0"/>
        <path id="Path_232" data-name="Path 232" d="M360.53,206.25a39.07,39.07,0,0,1-9,0,39.071,39.071,0,0,1,9,0Z" fill="#e0e0e0"/>
        <path id="Path_233" data-name="Path 233" d="M360.53,215.79a39.069,39.069,0,0,1-9,0,39.069,39.069,0,0,1,9,0Z" fill="#e0e0e0"/>
        <path id="Path_234" data-name="Path 234" d="M360.53,225.32a39.07,39.07,0,0,1-9,0,39.07,39.07,0,0,1,9,0Z" fill="#e0e0e0"/>
        <path id="Path_235" data-name="Path 235" d="M360.53,234.85a39.07,39.07,0,0,1-9,0,39.069,39.069,0,0,1,9,0Z" fill="#e0e0e0"/>
        <path id="Path_236" data-name="Path 236" d="M360.53,244.39a39.071,39.071,0,0,1-9,0,39.07,39.07,0,0,1,9,0Z" fill="#e0e0e0"/>
        <path id="Path_237" data-name="Path 237" d="M360.53,253.92a39.069,39.069,0,0,1-9,0,39.069,39.069,0,0,1,9,0Z" fill="#e0e0e0"/>
        <path id="Path_238" data-name="Path 238" d="M360.53,263.45a39.071,39.071,0,0,1-9,0,39.071,39.071,0,0,1,9,0Z" fill="#e0e0e0"/>
        <path id="Path_239" data-name="Path 239" d="M360.53,273a39.071,39.071,0,0,1-9,0,39.068,39.068,0,0,1,9,0Z" fill="#e0e0e0"/>
        <path id="Path_240" data-name="Path 240" d="M360.53,282.52a39.069,39.069,0,0,1-9,0,39.069,39.069,0,0,1,9,0Z" fill="#e0e0e0"/>
        <path id="Path_241" data-name="Path 241" d="M360.53,292.05a39.071,39.071,0,0,1-9,0A39.071,39.071,0,0,1,360.53,292.05Z" fill="#e0e0e0"/>
        <path id="Path_242" data-name="Path 242" d="M360.53,301.59a39.069,39.069,0,0,1-9,0,39.069,39.069,0,0,1,9,0Z" fill="#e0e0e0"/>
        <path id="Path_243" data-name="Path 243" d="M396.62,167.56c0,.14-5.23.26-11.68.26s-11.69-.12-11.69-.26,5.23-.26,11.69-.26S396.62,167.41,396.62,167.56Z" fill="#845EC2"/>
        <path id="Path_244" data-name="Path 244" d="M396.62,301.59c0,.14-5.23.26-11.68.26s-11.69-.12-11.69-.26,5.23-.26,11.69-.26S396.62,301.44,396.62,301.59Z" fill="#845EC2"/>
        <path id="Path_245" data-name="Path 245" d="M429.16,187.19c0,.14-9.79.26-21.86.26s-21.86-.12-21.86-.26,9.79-.26,21.86-.26S429.16,187,429.16,187.19Z" fill="#845EC2"/>
        <path id="Path_246" data-name="Path 246" d="M479.7,187.19c0,.14-9.78.26-21.85.26s-21.86-.12-21.86-.26,9.78-.26,21.86-.26S479.7,187,479.7,187.19Z" fill="#e0e0e0"/>
        <path id="Path_247" data-name="Path 247" d="M460.39,196.72c0,.14-14.43.26-32.21.26s-32.22-.12-32.22-.26,14.42-.26,32.22-.26S460.39,196.58,460.39,196.72Z" fill="#e0e0e0"/>
        <path id="Path_248" data-name="Path 248" d="M460.39,206.25c0,.15-14.43.26-32.21.26S396,206.4,396,206.25s14.42-.26,32.22-.26S460.39,206.11,460.39,206.25Z" fill="#e0e0e0"/>
        <path id="Path_249" data-name="Path 249" d="M504.73,234.85c0,.15-14.42.26-32.21.26s-32.21-.11-32.21-.26,14.42-.26,32.21-.26S504.73,234.71,504.73,234.85Z" fill="#e0e0e0"/>
        <path id="Path_250" data-name="Path 250" d="M485.6,215.79c0,.14-14.43.26-32.21.26s-32.22-.12-32.22-.26,14.42-.26,32.22-.26S485.6,215.64,485.6,215.79Z" fill="#e0e0e0"/>
        <path id="Path_251" data-name="Path 251" d="M564.32,215.79c0,.14-14.42.26-32.21.26s-32.21-.12-32.21-.26,14.42-.26,32.21-.26S564.32,215.64,564.32,215.79Z" fill="#e0e0e0"/>
        <path id="Path_252" data-name="Path 252" d="M536.94,196.72c0,.14-14.42.26-32.21.26s-32.21-.12-32.21-.26,14.42-.26,32.21-.26S536.94,196.58,536.94,196.72Z" fill="#fafafa"/>
        <path id="Path_253" data-name="Path 253" d="M581.45,234.85c0,.15-14.43.26-32.21.26S517,235,517,234.85s14.42-.26,32.22-.26S581.45,234.71,581.45,234.85Z" fill="#fafafa"/>
        <path id="Path_254" data-name="Path 254" d="M572.56,206.25c0,.15-22.4.26-50,.26s-50-.11-50-.26,22.39-.26,50-.26S572.56,206.11,572.56,206.25Z" fill="#455a64"/>
        <path id="Path_255" data-name="Path 255" d="M396.62,177.65c0,.15-5.23.26-11.68.26s-11.69-.11-11.69-.26,5.23-.26,11.69-.26S396.62,177.51,396.62,177.65Z" fill="#fafafa"/>
        <path id="Path_256" data-name="Path 256" d="M396.62,292.05c0,.15-5.23.26-11.68.26s-11.69-.11-11.69-.26,5.23-.26,11.69-.26S396.62,291.91,396.62,292.05Z" fill="#fafafa"/>
        <path id="Path_257" data-name="Path 257" d="M408.19,215.79c0,.14-5.23.26-11.68.26s-11.68-.12-11.68-.26,5.23-.26,11.68-.26S408.19,215.64,408.19,215.79Z" fill="#fafafa"/>
        <path id="Path_258" data-name="Path 258" d="M595.45,215.79c0,.14-5.23.26-11.68.26s-11.68-.12-11.68-.26,5.23-.26,11.68-.26S595.45,215.64,595.45,215.79Z" fill="#845EC2"/>
        <path id="Path_259" data-name="Path 259" d="M429.16,253.86c0,.15-9.79.26-21.86.26s-21.86-.11-21.86-.26,9.79-.26,21.86-.26S429.16,253.72,429.16,253.86Z" fill="#845EC2"/>
        <path id="Path_260" data-name="Path 260" d="M479.7,253.86c0,.15-9.78.26-21.85.26S436,254,436,253.86s9.78-.26,21.86-.26S479.7,253.72,479.7,253.86Z" fill="#e0e0e0"/>
        <path id="Path_261" data-name="Path 261" d="M460.39,263.4c0,.14-14.43.26-32.21.26S396,263.54,396,263.4s14.42-.26,32.22-.26S460.39,263.25,460.39,263.4Z" fill="#e0e0e0"/>
        <path id="Path_262" data-name="Path 262" d="M460.39,272.93c0,.14-14.43.26-32.21.26s-32.22-.12-32.22-.26,14.42-.26,32.22-.26S460.39,272.79,460.39,272.93Z" fill="#e0e0e0"/>
        <path id="Path_263" data-name="Path 263" d="M485.6,282.46c0,.15-14.43.26-32.21.26s-32.22-.11-32.22-.26,14.42-.26,32.22-.26S485.6,282.32,485.6,282.46Z" fill="#e0e0e0"/>
        <path id="Path_264" data-name="Path 264" d="M564.32,282.46c0,.15-14.42.26-32.21.26s-32.21-.11-32.21-.26,14.42-.26,32.21-.26S564.32,282.32,564.32,282.46Z" fill="#e0e0e0"/>
        <path id="Path_265" data-name="Path 265" d="M536.94,263.4c0,.14-14.42.26-32.21.26s-32.21-.12-32.21-.26,14.42-.26,32.21-.26S536.94,263.25,536.94,263.4Z" fill="#fafafa"/>
        <path id="Path_266" data-name="Path 266" d="M572.56,272.93c0,.14-22.4.26-50,.26s-50-.12-50-.26,22.39-.26,50-.26S572.56,272.79,572.56,272.93Z" fill="#455a64"/>
        <path id="Path_267" data-name="Path 267" d="M408.19,282.46c0,.15-5.23.26-11.68.26s-11.68-.11-11.68-.26,5.23-.26,11.68-.26S408.19,282.32,408.19,282.46Z" fill="#fafafa"/>
        <path id="Path_268" data-name="Path 268" d="M595.45,282.46c0,.15-5.23.26-11.68.26s-11.68-.11-11.68-.26,5.23-.26,11.68-.26S595.45,282.32,595.45,282.46Z" fill="#845EC2"/>
      </g>
      <g id="freepik--React--inject-3">
        <path id="Path_269" data-name="Path 269" d="M652.65,312.48c-.19.11-1.88-2.7-5.29-7.52-1.7-2.41-3.85-5.31-6.52-8.53a95,95,0,0,0-9.79-10.21,54.261,54.261,0,0,0-6.46-5,24.431,24.431,0,0,0-7.83-3.52,9.55,9.55,0,0,0-4.22-.06,6.29,6.29,0,0,0-3.44,2.21,10.171,10.171,0,0,0-1.89,4.08,22.079,22.079,0,0,0-.6,4.87,48.1,48.1,0,0,0,1.14,10.39,84.4,84.4,0,0,0,3,10.62A133,133,0,0,0,634,350.06a86.308,86.308,0,0,0,7.68,7.93,48.2,48.2,0,0,0,8.43,6.19,23,23,0,0,0,4.52,1.92,10.369,10.369,0,0,0,4.48.4,6.25,6.25,0,0,0,3.63-1.89,9.42,9.42,0,0,0,2.06-3.67,24.319,24.319,0,0,0,.86-8.54,52.821,52.821,0,0,0-1.07-8.09,93.8,93.8,0,0,0-4-13.58c-1.45-3.92-2.89-7.23-4.12-9.91-2.47-5.37-4.06-8.23-3.87-8.34a9.3,9.3,0,0,1,1.4,1.94c.82,1.33,2,3.32,3.38,5.95a104.715,104.715,0,0,1,4.57,9.83,89.734,89.734,0,0,1,4.39,13.73,54.485,54.485,0,0,1,1.28,8.35,26.339,26.339,0,0,1-.81,9.31,11.7,11.7,0,0,1-2.5,4.55,8.43,8.43,0,0,1-4.87,2.61,12.52,12.52,0,0,1-5.49-.39,24.581,24.581,0,0,1-5-2.08,49.428,49.428,0,0,1-8.94-6.43,86.252,86.252,0,0,1-8-8.13,131.909,131.909,0,0,1-23.7-41,85.287,85.287,0,0,1-3-11,49.771,49.771,0,0,1-1.11-11,24.451,24.451,0,0,1,.72-5.39,12.64,12.64,0,0,1,2.4-5,8.54,8.54,0,0,1,4.7-2.91,11.649,11.649,0,0,1,5.2.11,26.381,26.381,0,0,1,8.46,3.95,56.1,56.1,0,0,1,6.6,5.28A90.553,90.553,0,0,1,642,295.52c2.6,3.35,4.64,6.36,6.23,8.87s2.73,4.53,3.46,5.91a9.087,9.087,0,0,1,.96,2.18Z" fill="#845EC2"/>
        <path id="Path_270" data-name="Path 270" d="M621.77,312.42c.18.11-1.44,2.84-4,8-1.26,2.56-2.74,5.73-4.23,9.49a86.106,86.106,0,0,0-4.07,13.06,49.154,49.154,0,0,0-1.12,7.8,23,23,0,0,0,.8,8.24,9.489,9.489,0,0,0,2,3.57,6.56,6.56,0,0,0,3.48,1.94,10,10,0,0,0,4.35-.12,20.228,20.228,0,0,0,4.46-1.6,43.78,43.78,0,0,0,8.43-5.55,79.377,79.377,0,0,0,7.74-7.34,122.52,122.52,0,0,0,23.63-38.18,78.369,78.369,0,0,0,3.11-10.21,43.805,43.805,0,0,0,1.21-10,20.515,20.515,0,0,0-.56-4.7,10.06,10.06,0,0,0-1.83-3.95,6.57,6.57,0,0,0-3.3-2.25,9.48,9.48,0,0,0-4.08-.18,23.091,23.091,0,0,0-7.73,2.95,50.744,50.744,0,0,0-6.48,4.49,87.144,87.144,0,0,0-9.87,9.47c-2.7,3-4.88,5.75-6.61,8-3.46,4.54-5.18,7.21-5.36,7.1a7.6,7.6,0,0,1,1-2.09c.75-1.31,1.9-3.23,3.53-5.6a105,105,0,0,1,6.33-8.38,82.53,82.53,0,0,1,9.8-9.94,49.514,49.514,0,0,1,6.63-4.8,25,25,0,0,1,8.42-3.36,11.77,11.77,0,0,1,5,.18,8.82,8.82,0,0,1,4.46,2.95,12.471,12.471,0,0,1,2.33,4.8,23.242,23.242,0,0,1,.68,5.24A45.659,45.659,0,0,1,668.81,302a80,80,0,0,1-3.15,10.56,122.349,122.349,0,0,1-24.15,39,80.2,80.2,0,0,1-8,7.54,45.842,45.842,0,0,1-9,5.78,22.861,22.861,0,0,1-5,1.73,12.28,12.28,0,0,1-5.33.06,8.82,8.82,0,0,1-4.63-2.67,11.729,11.729,0,0,1-2.41-4.42,25,25,0,0,1-.75-9,49.547,49.547,0,0,1,1.34-8.08,82.48,82.48,0,0,1,4.52-13.21,104.145,104.145,0,0,1,4.67-9.4c1.4-2.52,2.6-4.4,3.44-5.66S621.69,312.37,621.77,312.42Z" fill="#845EC2"/>
        <path id="Path_271" data-name="Path 271" d="M635.24,300.91c0,.22-3.18.27-8.87.82-2.84.28-6.31.7-10.29,1.4a87.749,87.749,0,0,0-13.25,3.42,50.07,50.07,0,0,0-7.22,3.15,22.89,22.89,0,0,0-6.59,5,9.529,9.529,0,0,0-2,3.56,6.649,6.649,0,0,0,.18,4,10.22,10.22,0,0,0,2.39,3.64,20.875,20.875,0,0,0,3.71,2.94,43.831,43.831,0,0,0,9.15,4.25,78.157,78.157,0,0,0,10.33,2.72,122.14,122.14,0,0,0,44.89,0A78,78,0,0,0,668,333.1a43.676,43.676,0,0,0,9.16-4.25,20.88,20.88,0,0,0,3.71-2.94,10.219,10.219,0,0,0,2.39-3.64,6.65,6.65,0,0,0,.18-4,9.531,9.531,0,0,0-2-3.56,22.89,22.89,0,0,0-6.59-5,48,48,0,0,0-7.22-3.15,87.75,87.75,0,0,0-13.25-3.42c-4-.7-7.45-1.12-10.29-1.4-5.69-.55-8.87-.6-8.86-.82a7.76,7.76,0,0,1,2.3-.24c1.51-.05,3.75-.08,6.63.05a102.618,102.618,0,0,1,10.45,1,82.6,82.6,0,0,1,13.61,3.1,50.713,50.713,0,0,1,7.57,3.12,24.859,24.859,0,0,1,7.29,5.39,11.7,11.7,0,0,1,2.49,4.37,8.86,8.86,0,0,1-.16,5.34,12.36,12.36,0,0,1-2.86,4.51,22.218,22.218,0,0,1-4.1,3.33,45.692,45.692,0,0,1-9.64,4.59,79.172,79.172,0,0,1-10.64,2.87,121.841,121.841,0,0,1-45.89,0,79.178,79.178,0,0,1-10.64-2.87,45.688,45.688,0,0,1-9.64-4.59,22.55,22.55,0,0,1-4.1-3.33,12.28,12.28,0,0,1-2.86-4.51,8.86,8.86,0,0,1-.16-5.34,11.77,11.77,0,0,1,2.49-4.37,24.911,24.911,0,0,1,7.29-5.39,49.191,49.191,0,0,1,7.57-3.11,81.488,81.488,0,0,1,13.61-3.11c4.06-.58,7.58-.85,10.45-1s5.12-.1,6.63-.05a7.869,7.869,0,0,1,2.32.23Z" fill="#845EC2"/>
        <circle id="Ellipse_2" data-name="Ellipse 2" cx="8.37" cy="8.37" r="8.37" transform="translate(628.088 329.195) rotate(-80.76)" fill="#845EC2"/>
      </g>
      <g id="freepik--Device--inject-3">
        <path id="Path_272" data-name="Path 272" d="M202.13,235.47H499.58a6.74,6.74,0,0,1,6.74,6.74v185a14.57,14.57,0,0,1-14.57,14.57H208.95a14.57,14.57,0,0,1-14.57-14.57v-184a7.75,7.75,0,0,1,7.75-7.74Z" fill="#455a64"/>
        <path id="Path_273" data-name="Path 273" d="M181.34,426.5h338v4.33a13.72,13.72,0,0,1-13.72,13.72H195.06a13.72,13.72,0,0,1-13.72-13.72Z" fill="#455a64"/>
        <rect id="Rectangle_8" data-name="Rectangle 8" width="294.32" height="174.2" transform="translate(202.75 243.67)" fill="#e0e0e0"/>
        <path id="Path_274" data-name="Path 274" d="M319.6,426.5l4.19,6.67H382.8l3.9-6.67Z" fill="#263238"/>
        <rect id="Rectangle_9" data-name="Rectangle 9" width="311.94" height="0.99" transform="translate(194.43 426.43)" fill="#263238"/>
        <path id="Path_275" data-name="Path 275" d="M232.78,413.05c-.14,0-.26-34.95-.26-78.06s.12-78.06.26-78.06S233,291.87,233,335,232.92,413.05,232.78,413.05Z" fill="#e0e0e0"/>
        <path id="Path_276" data-name="Path 276" d="M227.18,271.08a19.36,19.36,0,0,1-4.51.26,19.36,19.36,0,0,1-4.51-.26,39.249,39.249,0,0,1,9,0Z" fill="#e0e0e0"/>
        <path id="Path_277" data-name="Path 277" d="M227.53,262.22a19.36,19.36,0,0,1-4.51.26,19.36,19.36,0,0,1-4.51-.26,39.249,39.249,0,0,1,9,0Z" fill="#e0e0e0"/>
        <path id="Path_278" data-name="Path 278" d="M227.18,280.63a39.251,39.251,0,0,1-9,0,39.251,39.251,0,0,1,9,0Z" fill="#e0e0e0"/>
        <path id="Path_279" data-name="Path 279" d="M227.18,290.18a39.249,39.249,0,0,1-9,0,19.36,19.36,0,0,1,4.51-.26,19.361,19.361,0,0,1,4.49.26Z" fill="#e0e0e0"/>
        <path id="Path_280" data-name="Path 280" d="M227.18,299.73a39.249,39.249,0,0,1-9,0,19.36,19.36,0,0,1,4.51-.26,19.361,19.361,0,0,1,4.49.26Z" fill="#e0e0e0"/>
        <path id="Path_281" data-name="Path 281" d="M227.18,309.28a39.249,39.249,0,0,1-9,0,19.358,19.358,0,0,1,4.51-.26,19.36,19.36,0,0,1,4.49.26Z" fill="#e0e0e0"/>
        <path id="Path_282" data-name="Path 282" d="M227.18,318.82a19,19,0,0,1-4.51.27,19,19,0,0,1-4.51-.27,39.251,39.251,0,0,1,9,0Z" fill="#e0e0e0"/>
        <path id="Path_283" data-name="Path 283" d="M227.18,328.37a19.359,19.359,0,0,1-4.51.26,19.36,19.36,0,0,1-4.51-.26,39.253,39.253,0,0,1,9,0Z" fill="#e0e0e0"/>
        <path id="Path_284" data-name="Path 284" d="M227.18,337.92a19.36,19.36,0,0,1-4.51.26,19.36,19.36,0,0,1-4.51-.26,39.251,39.251,0,0,1,9,0Z" fill="#e0e0e0"/>
        <path id="Path_285" data-name="Path 285" d="M227.18,347.47a19.36,19.36,0,0,1-4.51.26,19.362,19.362,0,0,1-4.51-.26,39.251,39.251,0,0,1,9,0Z" fill="#e0e0e0"/>
        <path id="Path_286" data-name="Path 286" d="M227.18,357a39.249,39.249,0,0,1-9,0,39.251,39.251,0,0,1,9,0Z" fill="#e0e0e0"/>
        <path id="Path_287" data-name="Path 287" d="M227.18,366.57a39.251,39.251,0,0,1-9,0,19.36,19.36,0,0,1,4.51-.26,19.36,19.36,0,0,1,4.49.26Z" fill="#e0e0e0"/>
        <path id="Path_288" data-name="Path 288" d="M227.18,376.12a39.251,39.251,0,0,1-9,0,19.36,19.36,0,0,1,4.51-.26,19.36,19.36,0,0,1,4.49.26Z" fill="#e0e0e0"/>
        <path id="Path_289" data-name="Path 289" d="M227.18,385.67a39.249,39.249,0,0,1-9,0,19.36,19.36,0,0,1,4.51-.26,19.36,19.36,0,0,1,4.49.26Z" fill="#e0e0e0"/>
        <path id="Path_290" data-name="Path 290" d="M227.18,395.22a39.249,39.249,0,0,1-9,0,19,19,0,0,1,4.51-.27,19,19,0,0,1,4.49.27Z" fill="#e0e0e0"/>
        <path id="Path_291" data-name="Path 291" d="M227.18,404.76a19.362,19.362,0,0,1-4.51.26,19.362,19.362,0,0,1-4.51-.26,39.251,39.251,0,0,1,9,0Z" fill="#e0e0e0"/>
        <path id="Path_292" data-name="Path 292" d="M263.33,270.52c0,.14-5.24.26-11.7.26s-11.71-.12-11.71-.26,5.24-.26,11.71-.26S263.33,270.37,263.33,270.52Z" fill="#845EC2"/>
        <path id="Path_293" data-name="Path 293" d="M263.33,404.76c0,.15-5.24.26-11.7.26s-11.71-.11-11.71-.26,5.24-.26,11.71-.26S263.33,404.62,263.33,404.76Z" fill="#845EC2"/>
        <path id="Path_294" data-name="Path 294" d="M295.92,290.18c0,.14-9.81.26-21.9.26s-21.89-.12-21.89-.26,9.8-.26,21.89-.26S295.92,290,295.92,290.18Z" fill="#845EC2"/>
        <path id="Path_295" data-name="Path 295" d="M346.55,290.18c0,.14-9.81.26-21.9.26s-21.89-.12-21.89-.26,9.8-.26,21.89-.26S346.55,290,346.55,290.18Z" fill="#e0e0e0"/>
        <path id="Path_296" data-name="Path 296" d="M327.2,299.73c0,.14-14.45.26-32.27.26s-32.26-.12-32.26-.26,14.44-.26,32.26-.26S327.2,299.58,327.2,299.73Z" fill="#e0e0e0"/>
        <path id="Path_297" data-name="Path 297" d="M327.2,309.28c0,.14-14.45.26-32.27.26s-32.26-.12-32.26-.26,14.44-.26,32.26-.26S327.2,309.13,327.2,309.28Z" fill="#e0e0e0"/>
        <path id="Path_298" data-name="Path 298" d="M371.61,337.92c0,.15-14.44.26-32.26.26s-32.27-.11-32.27-.26,14.45-.26,32.27-.26S371.61,337.78,371.61,337.92Z" fill="#e0e0e0"/>
        <path id="Path_299" data-name="Path 299" d="M352.45,318.82c0,.15-14.45.27-32.27.27s-32.26-.12-32.26-.27,14.44-.26,32.26-.26S352.45,318.68,352.45,318.82Z" fill="#e0e0e0"/>
        <path id="Path_300" data-name="Path 300" d="M431.3,318.82c0,.15-14.45.27-32.26.27s-32.27-.12-32.27-.27,14.45-.26,32.27-.26S431.3,318.68,431.3,318.82Z" fill="#e0e0e0"/>
        <path id="Path_301" data-name="Path 301" d="M403.88,299.73c0,.14-14.45.26-32.27.26s-32.26-.12-32.26-.26,14.44-.26,32.26-.26S403.88,299.58,403.88,299.73Z" fill="#fafafa"/>
        <path id="Path_302" data-name="Path 302" d="M448.45,337.92c0,.15-14.45.26-32.26.26s-32.27-.11-32.27-.26,14.45-.26,32.27-.26S448.45,337.78,448.45,337.92Z" fill="#fafafa"/>
        <path id="Path_303" data-name="Path 303" d="M439.55,309.28c0,.14-22.43.26-50.1.26s-50.1-.12-50.1-.26,22.43-.26,50.1-.26S439.55,309.13,439.55,309.28Z" fill="#455a64"/>
        <path id="Path_304" data-name="Path 304" d="M263.33,280.63c0,.14-5.24.26-11.7.26s-11.71-.12-11.71-.26,5.24-.26,11.71-.26S263.33,280.49,263.33,280.63Z" fill="#fafafa"/>
        <path id="Path_305" data-name="Path 305" d="M263.33,395.22c0,.14-5.24.26-11.7.26s-11.71-.12-11.71-.26,5.24-.27,11.71-.27S263.33,395.07,263.33,395.22Z" fill="#fafafa"/>
        <path id="Path_306" data-name="Path 306" d="M274.92,318.82c0,.15-5.24.27-11.7.27s-11.7-.12-11.7-.27,5.23-.26,11.7-.26S274.92,318.68,274.92,318.82Z" fill="#fafafa"/>
        <path id="Path_307" data-name="Path 307" d="M462.48,318.82c0,.15-5.24.27-11.7.27s-11.7-.12-11.7-.27,5.23-.26,11.7-.26S462.48,318.68,462.48,318.82Z" fill="#845EC2"/>
        <path id="Path_308" data-name="Path 308" d="M295.92,357c0,.15-9.81.26-21.9.26s-21.89-.11-21.89-.26,9.8-.26,21.89-.26S295.92,356.82,295.92,357Z" fill="#845EC2"/>
        <path id="Path_309" data-name="Path 309" d="M346.55,357c0,.15-9.81.26-21.9.26s-21.89-.11-21.89-.26,9.8-.26,21.89-.26S346.55,356.82,346.55,357Z" fill="#e0e0e0"/>
        <path id="Path_310" data-name="Path 310" d="M327.2,366.51c0,.15-14.45.26-32.27.26s-32.26-.11-32.26-.26,14.44-.26,32.26-.26S327.2,366.37,327.2,366.51Z" fill="#e0e0e0"/>
        <path id="Path_311" data-name="Path 311" d="M327.2,376.06c0,.15-14.45.26-32.27.26s-32.26-.11-32.26-.26,14.44-.26,32.26-.26S327.2,375.92,327.2,376.06Z" fill="#e0e0e0"/>
        <path id="Path_312" data-name="Path 312" d="M352.45,385.61c0,.14-14.45.26-32.27.26s-32.26-.12-32.26-.26,14.44-.26,32.26-.26S352.45,385.47,352.45,385.61Z" fill="#e0e0e0"/>
        <path id="Path_313" data-name="Path 313" d="M431.3,385.61c0,.14-14.45.26-32.26.26s-32.27-.12-32.27-.26,14.45-.26,32.27-.26S431.3,385.47,431.3,385.61Z" fill="#e0e0e0"/>
        <path id="Path_314" data-name="Path 314" d="M403.88,366.51c0,.15-14.45.26-32.27.26s-32.26-.11-32.26-.26,14.44-.26,32.26-.26S403.88,366.37,403.88,366.51Z" fill="#fafafa"/>
        <path id="Path_315" data-name="Path 315" d="M439.55,376.06c0,.15-22.43.26-50.1.26s-50.1-.11-50.1-.26,22.43-.26,50.1-.26S439.55,375.92,439.55,376.06Z" fill="#455a64"/>
        <path id="Path_316" data-name="Path 316" d="M274.92,385.61c0,.14-5.24.26-11.7.26s-11.7-.12-11.7-.26,5.23-.26,11.7-.26S274.92,385.47,274.92,385.61Z" fill="#fafafa"/>
        <path id="Path_317" data-name="Path 317" d="M462.48,385.61c0,.14-5.24.26-11.7.26s-11.7-.12-11.7-.26,5.23-.26,11.7-.26S462.48,385.47,462.48,385.61Z" fill="#845EC2"/>
        <rect id="Rectangle_10" data-name="Rectangle 10" width="277.56" height="164.11" transform="translate(211.49 253.76)" fill="#263238"/>
        <text id="_include_iostream_using_namespace_std_int_main_cout_Hello_Coders_return_0_" data-name="#include &lt;iostream&gt;

using namespace std;

int main()
{
    cout&lt;&lt;&quot;Hello Coders&quot;;

    return 0;
}" transform="translate(267.401 262.411)" fill="#fff" font-size="10" font-family="SegoeUI, Segoe UI"><tspan x="0" y="11">#include &lt;iostream&gt;</tspan><tspan x="0" y="25"></tspan><tspan x="0" y="39">using namespace std;</tspan><tspan x="0" y="53"></tspan><tspan x="0" y="67">int main()</tspan><tspan x="0" y="81">{</tspan><tspan x="0" y="95" xml:space="preserve">    cout&lt;&lt;&quot;Hello Coders&quot;;</tspan><tspan x="0" y="109"></tspan><tspan x="0" y="123" xml:space="preserve">    return 0;</tspan><tspan x="0" y="137">}</tspan></text>
      </g>
      <g id="freepik--Floor--inject-3">
        <path id="Path_318" data-name="Path 318" d="M700.42,444.56c0,.14-145.71.26-325.4.26s-325.44-.12-325.44-.26,145.68-.26,325.44-.26S700.42,444.41,700.42,444.56Z" fill="#263238"/>
      </g>
      <g id="freepik--character-2--inject-3">
        <path id="Path_319" data-name="Path 319" d="M568.68,388.12l4,12.49a14.43,14.43,0,0,0,11.2,10l26.66,5,7.25-.23-7.25-9-20-6.83a5.37,5.37,0,0,1-4-3.84l-8-17.36-10.11,6.2Z" fill="#ffbe9d"/>
        <path id="Path_320" data-name="Path 320" d="M549.58,304.23a8.79,8.79,0,0,0-1.5-5.54,6.77,6.77,0,0,0-4.38-3.38,5,5,0,0,0-5.19,3.06,6.52,6.52,0,0,0,.8,6.16,8.229,8.229,0,0,0,2.43,2.27,15.26,15.26,0,0,0-6,7.65c-.37,1.06-.62,2.16-1.08,3.18a4.74,4.74,0,0,1-2.21,2.45c-.76.34-1.61.37-2.39.66a4.38,4.38,0,0,0-2.63,3,5.32,5.32,0,0,0,.71,4,4.13,4.13,0,0,1,.9,1.86,4.792,4.792,0,0,1-.29,1.39,3.8,3.8,0,0,0,6.24,3.71,5.41,5.41,0,0,0,2.3,2.89c1.14.54,2.82.05,3-1.19a3,3,0,0,0,5.71-1.08l21.5-23.51C564.3,303.27,551.75,304,549.58,304.23Z" fill="#845EC2"/>
        <path id="Path_321" data-name="Path 321" d="M545.94,312.4a2.7,2.7,0,0,0-2.4,2.72h0l1.52,36.2c.06,4.28,7.82,9.34,12.39,9.24h0c4.63-.1,3.27-5,3.33-9.07.12-6.8.11-9.35.12-9.31s5.84-1,7.05-8.59c.6-3.79.41-10,.09-15.08-.29-4.57-3.32-10.18-7.87-9.7Z" fill="#ffbe9d"/>
        <path id="Path_322" data-name="Path 322" d="M566.06,323.44a1,1,0,0,1-.94,1,.94.94,0,0,1-1-.88,1,1,0,0,1,.94-1,.94.94,0,0,1,1,.88Z" fill="#263238"/>
        <path id="Path_323" data-name="Path 323" d="M566.69,321.74c-.12.13-.86-.42-1.91-.42s-1.83.53-1.94.4.07-.28.4-.53a2.74,2.74,0,0,1,1.55-.48,2.62,2.62,0,0,1,1.53.5C566.64,321.45,566.75,321.68,566.69,321.74Z" fill="#263238"/>
        <path id="Path_324" data-name="Path 324" d="M555.78,323.44a1,1,0,0,1-.94,1,.94.94,0,0,1-1-.88,1,1,0,0,1,.94-1,.94.94,0,0,1,1,.88Z" fill="#263238"/>
        <path id="Path_325" data-name="Path 325" d="M556.35,321.94c-.12.12-.86-.42-1.91-.42s-1.82.53-1.94.4.07-.29.41-.53a2.64,2.64,0,0,1,1.55-.48,2.61,2.61,0,0,1,1.52.49C556.3,321.65,556.41,321.88,556.35,321.94Z" fill="#263238"/>
        <path id="Path_326" data-name="Path 326" d="M560.17,329.74a6.537,6.537,0,0,1,1.71-.31c.27,0,.52-.08.57-.27a1.38,1.38,0,0,0-.18-.79c-.26-.65-.52-1.33-.8-2.05a34.609,34.609,0,0,1-1.78-5.35,35.159,35.159,0,0,1,2.21,5.2c.26.72.52,1.4.76,2.05a1.57,1.57,0,0,1,.14,1.06.68.68,0,0,1-.44.39,1.659,1.659,0,0,1-.46.06,6.941,6.941,0,0,1-1.73.01Z" fill="#263238"/>
        <path id="Path_327" data-name="Path 327" d="M560.9,342.18a19.42,19.42,0,0,1-10.21-2.72s2.48,5.23,10.1,4.52Z" fill="#eb996e"/>
        <path id="Path_328" data-name="Path 328" d="M559.72,332.27a1.88,1.88,0,0,0-1.69-.7,1.75,1.75,0,0,0-1.2.64,1.09,1.09,0,0,0-.08,1.25,1.27,1.27,0,0,0,1.38.35,3.92,3.92,0,0,0,1.34-.8,1.261,1.261,0,0,0,.3-.31.35.35,0,0,0,0-.39" fill="#eb996e"/>
        <path id="Path_329" data-name="Path 329" d="M557.07,330.46c.18,0,.18,1.14,1.15,2s2.2.68,2.21.84-.28.22-.79.24a2.93,2.93,0,0,1-1.84-.64,2.51,2.51,0,0,1-.89-1.63C556.87,330.74,557,330.46,557.07,330.46Z" fill="#263238"/>
        <path id="Path_330" data-name="Path 330" d="M556.83,320.1c-.11.28-1.16.15-2.39.3s-2.23.48-2.4.22.1-.39.51-.66a4,4,0,0,1,1.77-.63,4.06,4.06,0,0,1,1.87.22C556.64,319.74,556.87,320,556.83,320.1Z" fill="#845EC2"/>
        <path id="Path_331" data-name="Path 331" d="M566.3,318.7c-.18.24-.91,0-1.78,0s-1.61.16-1.78-.09,0-.36.37-.59a2.5,2.5,0,0,1,1.45-.39,2.47,2.47,0,0,1,1.42.48C566.28,318.34,566.39,318.58,566.3,318.7Z" fill="#845EC2"/>
        <path id="Path_332" data-name="Path 332" d="M544.39,324.59a1.93,1.93,0,0,0-2,.1,3.53,3.53,0,0,0,2.23,6.56" fill="#ffbe9d"/>
        <path id="Path_333" data-name="Path 333" d="M556.37,306.27a15.48,15.48,0,0,1,7.32,2.27,10.63,10.63,0,0,1,5.23,6.21,2.18,2.18,0,0,1-.06,1.72,1.69,1.69,0,0,1-2.09.45,4.9,4.9,0,0,1-1.7-1.57,3.26,3.26,0,0,1-6.33-.07,2.86,2.86,0,0,1-2.94,2.62,3.75,3.75,0,0,1-3.24-2.56,9.61,9.61,0,0,1-1.34,3.72,3.26,3.26,0,0,1-3.45,1.41,6.78,6.78,0,0,1,0,3.41,2.33,2.33,0,0,1-2.69,1.57c-1.06-.36-1.47-1.61-1.71-2.7a25.171,25.171,0,0,1-.82-6.39,9.35,9.35,0,0,1,7.55-9.48,25,25,0,0,1,6.63-.61" fill="#845EC2"/>
        <path id="Path_334" data-name="Path 334" d="M543.86,329c0-.05-.3.07-.67-.1a1.33,1.33,0,0,1-.65-1.3,1.35,1.35,0,0,1,.81-1.23,4.383,4.383,0,0,1,.68-.13.864.864,0,0,0-.76-.13,1.36,1.36,0,0,0-.75.46,1.71,1.71,0,0,0-.38,1,1.52,1.52,0,0,0,1,1.58A.666.666,0,0,0,543.86,329Z" fill="#eb996e"/>
        <path id="Path_335" data-name="Path 335" d="M541,329.38a1.018,1.018,0,0,0-.32.08,6.49,6.49,0,0,0-3.33,2.73,4.89,4.89,0,0,0-.68,2.29,5.369,5.369,0,0,0,.64,2.68,6.29,6.29,0,0,0,2,2.26,5.64,5.64,0,0,0,3.11,1,5.91,5.91,0,0,0,5.15-3.22,5,5,0,0,0,.54-2.7,5.63,5.63,0,0,0-.74-2.27,5.439,5.439,0,0,0-2.52-2.3,3.632,3.632,0,0,0-.89-.27q-.32-.06-.33,0a6.128,6.128,0,0,1,1.15.44,5.54,5.54,0,0,1,2.35,2.29,5.46,5.46,0,0,1,.65,2.17,4.771,4.771,0,0,1-.54,2.51,5.56,5.56,0,0,1-4.82,3,5.68,5.68,0,0,1-4.81-3,4.76,4.76,0,0,1,0-4.66,6.54,6.54,0,0,1,2.32-2.35A6.615,6.615,0,0,1,541,329.38Z" fill="#263238"/>
        <path id="Path_336" data-name="Path 336" d="M547.25,305.76c-.08,0-.24-.67-.71-1.66a9.15,9.15,0,0,0-6.47-5.1c-1.08-.23-1.78-.22-1.78-.31a3.8,3.8,0,0,1,1.84-.06,8.51,8.51,0,0,1,4.1,1.74,8.41,8.41,0,0,1,2.64,3.58,3.8,3.8,0,0,1,.38,1.81Z" fill="#e0e0e0"/>
        <path id="Path_337" data-name="Path 337" d="M529.73,334.71s-.13,0-.27-.25a1.46,1.46,0,0,1-.18-1,2.17,2.17,0,0,1,.94-1.38,18.222,18.222,0,0,1,1.89-1,2.31,2.31,0,0,0,1.32-1.88,11.062,11.062,0,0,0-.52-2.87,5.718,5.718,0,0,1-.16-1.68,2.8,2.8,0,0,1,.72-1.66,6.89,6.89,0,0,1,3.21-1.69,5.34,5.34,0,0,0,2.88-1.66,4.31,4.31,0,0,0,.48-3,15.673,15.673,0,0,1-.21-3,8.32,8.32,0,0,1,2.89-5.64,5.132,5.132,0,0,1,.85-.59,1.161,1.161,0,0,1,.33-.16,10.5,10.5,0,0,0-1,.9,8.4,8.4,0,0,0-2.05,3.05,8.129,8.129,0,0,0-.55,2.47,16.254,16.254,0,0,0,.25,2.93,4.72,4.72,0,0,1-.53,3.36,5.72,5.72,0,0,1-3.14,1.86,6.51,6.51,0,0,0-3,1.54,3.09,3.09,0,0,0-.47,2.9,10.8,10.8,0,0,1,.48,3,2.6,2.6,0,0,1-.54,1.36,3.13,3.13,0,0,1-1,.81,14.953,14.953,0,0,0-1.9,1,2,2,0,0,0-.91,1.19A1.49,1.49,0,0,0,529.73,334.71Z" fill="#e0e0e0"/>
        <path id="Path_338" data-name="Path 338" d="M556.89,315c-.08,0-.15-.81-.55-2a10.66,10.66,0,0,0-2.58-4.23,10.83,10.83,0,0,0-4.23-2.56c-1.22-.4-2-.46-2-.55a4.729,4.729,0,0,1,2.13.2,9.74,9.74,0,0,1,7.06,7A4.549,4.549,0,0,1,556.89,315Z" fill="#e0e0e0"/>
        <path id="Path_339" data-name="Path 339" d="M563,311.7a19.008,19.008,0,0,0-1.33-2.36,10.43,10.43,0,0,0-5.22-3.63,16.15,16.15,0,0,0-6.45-.52c-1.67.18-2.69.41-2.71.33a8.9,8.9,0,0,1,2.66-.69,14.73,14.73,0,0,1,6.66.38,10.1,10.1,0,0,1,5.36,3.92,6.77,6.77,0,0,1,.89,1.83,1.789,1.789,0,0,1,.14.74Z" fill="#e0e0e0"/>
        <path id="Path_340" data-name="Path 340" d="M549.74,303.85a3.687,3.687,0,0,1-.78,1.11,7.509,7.509,0,0,1-2.78,1.74,7.36,7.36,0,0,1-3.25.41,2.59,2.59,0,0,1-1.31-.37,13.15,13.15,0,0,0,4.39-.53A13.4,13.4,0,0,0,549.74,303.85Z" fill="#263238"/>
        <path id="Path_341" data-name="Path 341" d="M555.09,444.62c-18.31-6.06-5.76-30.28-5.76-30.28l80,7.53A11.57,11.57,0,0,1,641,433.45h0A11.57,11.57,0,0,1,629.44,445l-74.35-.4" fill="#263238"/>
        <path id="Path_342" data-name="Path 342" d="M536.35,444.6c-17.84-6-5.54-30.27-5.54-30.27l78,7.36c7.62.1,11.34,3.78,11.34,11.55h0c0,6.39-2.38,11.78-11.31,11.6l-72.5-.24" fill="#263238"/>
        <path id="Path_343" data-name="Path 343" d="M554.46,418.43h.87l2.5.1L567,419l30.27,1.66c1.48.07,2.94.2,4.38.22s2.87.08,4.26.17,2.77.19,4.11.33a14.94,14.94,0,0,1,3.9.8,9.63,9.63,0,0,1,3.25,2.08,8.591,8.591,0,0,1,2,3.16,15.473,15.473,0,0,1,.81,3.41,24.2,24.2,0,0,1,.21,3.23,13.76,13.76,0,0,1-1,5.43,9,9,0,0,1-2.43,3.31,6.6,6.6,0,0,1-2.21,1.24c-.55.18-.56.12,0-.08a6.841,6.841,0,0,0,2.14-1.29,9.061,9.061,0,0,0,2.32-3.28,13.649,13.649,0,0,0,1-5.33,23.625,23.625,0,0,0-.24-3.18,15.514,15.514,0,0,0-.8-3.33,8.329,8.329,0,0,0-1.91-3,8.841,8.841,0,0,0-3.13-2,14.238,14.238,0,0,0-3.81-.77c-1.33-.14-2.7-.24-4.09-.32s-2.81-.14-4.24-.16-2.91-.15-4.39-.22L567,419.29l-9.18-.59-2.49-.18-.65-.06Z" fill="#455a64"/>
        <path id="Path_344" data-name="Path 344" d="M582.2,420l-6.41-3.15L571.32,402l-.43-19,9.06-3.82-7.19-18.05c-1.31-2.67-4-9.74-10.76-12.06a8.15,8.15,0,0,1,.24-3c.53-.89-16.59-1.42-17.56-1.07s.16,3.48.05,4c-6.09,1.68-12,4.19-14.23,12.56-.86,3.26-.57,10.14-.1,13.46l4.75,25.13-2.67,8.25s-9.35,19.48-5.8,27.09,9.57,9.33,9.57,9.33l46.58-.1Z" fill="#845EC2"/>
        <g id="Group_8" data-name="Group 8" opacity="0.3">
          <path id="Path_345" data-name="Path 345" d="M535.46,390.2a93.9,93.9,0,0,0,3.42,11.89,25.669,25.669,0,0,0,3.74,6.86,17.35,17.35,0,0,0,9,5.47,28.27,28.27,0,0,0,10.61.52l-17.63-10-4.69-16.29Z"/>
        </g>
        <path id="Path_346" data-name="Path 346" d="M571.31,401.45a7.451,7.451,0,0,1-.13-1.35c0-.94-.1-2.18-.18-3.67-.13-3.1-.28-7.39-.43-12.13s-.25-9-.3-12.13v-3.68a8.378,8.378,0,0,1,0-1.35,7.993,7.993,0,0,1,.12,1.34c.05.94.11,2.18.18,3.68.13,3.1.29,7.39.43,12.13s.25,9,.31,12.13v3.68A8.378,8.378,0,0,1,571.31,401.45Z" fill="#263238"/>
        <path id="Path_347" data-name="Path 347" d="M554.06,383.7a1.573,1.573,0,0,1-.32.14l-1,.36-3.84,1.35-14.06,4.85-.23.08-.05-.24c-.95-5.11-2.07-11.09-3.28-17.56h0c-.19-3.19-.83-6.52-.56-10a9.081,9.081,0,0,1,.69-2.45,11.07,11.07,0,0,1,1.16-2.21,9.38,9.38,0,0,1,3.7-3.16,8.1,8.1,0,0,1,8.78.95,11,11,0,0,1,2.35,3.58,33.624,33.624,0,0,1,1.37,3.76c.74,2.46,1.31,4.79,1.86,6.93l2.55,10c.29,1.15.51,2.05.67,2.71.07.28.12.51.17.69s0,.24,0,.23a1.117,1.117,0,0,1-.09-.25q-.09-.29-.21-.72c-.19-.66-.44-1.57-.77-2.72-.65-2.39-1.58-5.78-2.72-9.94-.58-2.08-1.15-4.4-1.91-6.84a33.389,33.389,0,0,0-1.38-3.7,10.469,10.469,0,0,0-2.24-3.41,7.64,7.64,0,0,0-8.24-.85,8.86,8.86,0,0,0-3.5,3,10.883,10.883,0,0,0-1.11,2.11,8.732,8.732,0,0,0-.65,2.32c-.26,3.37.35,6.7.55,9.93h0c1.18,6.47,2.27,12.45,3.2,17.57l-.28-.16,14-4.61,3.93-1.26,1-.33Z" fill="#263238"/>
        <path id="Path_348" data-name="Path 348" d="M540,388.35a4.2,4.2,0,0,1-.83-1.73c-.33-1-.47-1.85-.33-1.89s.51.73.83,1.73S540.17,388.31,540,388.35Z" fill="#263238"/>
        <path id="Path_349" data-name="Path 349" d="M544.62,387.06c-.14,0-.45-.72-.68-1.69s-.32-1.77-.18-1.81.45.72.68,1.69S544.76,387,544.62,387.06Z" fill="#263238"/>
        <path id="Path_350" data-name="Path 350" d="M549.25,385.4c-.14,0-.45-.58-.69-1.38s-.32-1.48-.18-1.53.44.58.68,1.38S549.38,385.36,549.25,385.4Z" fill="#263238"/>
        <path id="Path_351" data-name="Path 351" d="M574.29,381.57c-.12.07-.65-.59-1-1.56s-.41-1.81-.28-1.83.42.73.77,1.65S574.42,381.49,574.29,381.57Z" fill="#263238"/>
        <path id="Path_352" data-name="Path 352" d="M577.77,379.59c-.13.07-.55-.51-.94-1.28s-.6-1.45-.47-1.52.55.51.94,1.28S577.9,379.53,577.77,379.59Z" fill="#263238"/>
        <path id="Path_353" data-name="Path 353" d="M547.37,349.79a1.251,1.251,0,0,1,.09.45h-.27a17.218,17.218,0,0,1-.32-2.38,8.113,8.113,0,0,1,0-2.85,7.711,7.711,0,0,1,.5,2.81,17.8,17.8,0,0,1,.07,2.4h-.27C547.26,349.94,547.32,349.78,547.37,349.79Z" fill="#263238"/>
        <path id="Path_354" data-name="Path 354" d="M551.53,349.79a5.69,5.69,0,0,1-.43-2.32,5.24,5.24,0,0,1,.09-2.35,5.689,5.689,0,0,1,.43,2.32A5.24,5.24,0,0,1,551.53,349.79Z" fill="#263238"/>
        <path id="Path_355" data-name="Path 355" d="M555.89,350.73a7.571,7.571,0,0,1-.3-2.8,7.942,7.942,0,0,1,.22-2.81,7.569,7.569,0,0,1,.3,2.8,7.939,7.939,0,0,1-.22,2.81Z" fill="#263238"/>
        <path id="Path_356" data-name="Path 356" d="M559.45,350.14a5.79,5.79,0,0,1-.26-2.39,5.86,5.86,0,0,1,.26-2.4,5.569,5.569,0,0,1,.27,2.4A5.509,5.509,0,0,1,559.45,350.14Z" fill="#263238"/>
        <path id="Path_357" data-name="Path 357" d="M582.5,420.54c0,.14-8.69-.33-19.39-1.06s-19.36-1.44-19.35-1.58,8.69.33,19.39,1.06S582.51,420.4,582.5,420.54Z" fill="#263238"/>
        <path id="Path_358" data-name="Path 358" d="M537.53,389.54l4.29,14A14.5,14.5,0,0,0,553,413.68l26.66,5.07,7.25-.24-2.46-6.19-24.83-9.82a5.41,5.41,0,0,1-4-3.89l-3.75-14.05Z" fill="#ffbe9d"/>
        <path id="Path_359" data-name="Path 359" d="M561.1,418.93l.23-1.73,20.48-.8,10.05-25.35,38.29,2.6-12.92,28.14Z" fill="#455a64"/>
        <path id="Path_360" data-name="Path 360" d="M606.93,407.49a2,2,0,1,1-.62-2.76A2,2,0,0,1,606.93,407.49Z" fill="#fff"/>
      </g>
      <g id="freepik--character-1--inject-3">
        <path id="Path_361" data-name="Path 361" d="M283,236.89c16.69-6.06,8.12-31.23,8.12-31.23l-84.7,7.76a11.94,11.94,0,0,0-12,11.94h0a11.94,11.94,0,0,0,11.94,11.94l76.66-.41" fill="#263238"/>
        <path id="Path_362" data-name="Path 362" d="M173.93,306.59l-.17-8.4,16.11-5.73.67,11.7-.91.44c-4,1.91-20.7,9.43-23.81,9.72C162.35,314.63,173.93,306.59,173.93,306.59Z" fill="#845EC2"/>
        <g id="Group_9" data-name="Group 9" opacity="0.4">
          <path id="Path_363" data-name="Path 363" d="M168.36,310.74s-3.94,3.1-3.08,3.61,18-6.46,25.26-10.19l-.16-.33-19.9,8.3S169.25,310.42,168.36,310.74Z" fill="#fff"/>
        </g>
        <path id="Path_364" data-name="Path 364" d="M190.61,303.73l-.25.13-.72.35L187,305.43c-2.27,1-5.42,2.39-8.93,3.82s-6.73,2.67-9.06,3.52l-2.77,1-.76.26-.27.07.26-.11.74-.29,2.75-1.06c2.32-.89,5.52-2.13,9-3.57s6.67-2.78,9-3.76l2.7-1.17.73-.31a1.12,1.12,0,0,1,.22-.1Z" fill="#263238"/>
        <path id="Path_365" data-name="Path 365" d="M170.58,312.36a7.761,7.761,0,0,0-1-1.09,6.87,6.87,0,0,0-1.36-.67,2.65,2.65,0,0,1,2.4,1.76Z" fill="#263238"/>
        <path id="Path_366" data-name="Path 366" d="M174.09,308.32a3.587,3.587,0,0,1-.71-.38c-.36-.25-.63-.5-.59-.55s.34.13.7.39S174.12,308.27,174.09,308.32Z" fill="#263238"/>
        <path id="Path_367" data-name="Path 367" d="M175,307.18c0,.05-.32,0-.67-.14s-.63-.27-.61-.32.32,0,.67.14S175.06,307.13,175,307.18Z" fill="#263238"/>
        <path id="Path_368" data-name="Path 368" d="M175.23,305.45a2.1,2.1,0,0,1-.74.42,2,2,0,0,1-.82.24,2.1,2.1,0,0,1,.74-.42A2,2,0,0,1,175.23,305.45Z" fill="#263238"/>
        <path id="Path_369" data-name="Path 369" d="M175.09,304.35a1.73,1.73,0,0,1-.77.61,1.58,1.58,0,0,1-.95.24,5.742,5.742,0,0,1,.86-.42A5.3,5.3,0,0,1,175.09,304.35Z" fill="#263238"/>
        <path id="Path_370" data-name="Path 370" d="M173,307.22a3,3,0,0,1-1,.38,5.42,5.42,0,0,1-1.12.19,3.089,3.089,0,0,1-.68,0,.55.55,0,0,1-.37-.2.45.45,0,0,1,0-.45,1.92,1.92,0,0,1,2.4-.37,1.9,1.9,0,0,1,.58.52c.1.15.14.24.13.25a2.75,2.75,0,0,0-.78-.65,1.87,1.87,0,0,0-1-.2,1.61,1.61,0,0,0-1.11.55c-.11.18,0,.33.23.36a2.731,2.731,0,0,0,.64,0,7.81,7.81,0,0,0,1.1-.14C172.66,307.34,173,307.19,173,307.22Z" fill="#263238"/>
        <path id="Path_371" data-name="Path 371" d="M172.81,307.37a1.09,1.09,0,0,1-.38-.63,1.67,1.67,0,0,1,0-.81,1,1,0,0,1,.6-.82.42.42,0,0,1,.48.33,1.21,1.21,0,0,1,0,.5,3.441,3.441,0,0,1-.22.76,1.53,1.53,0,0,1-.39.62,6.349,6.349,0,0,0,.26-.67,3.241,3.241,0,0,0,.17-.74c.05-.26,0-.66-.27-.6s-.4.41-.47.66a1.69,1.69,0,0,0,0,.74A4,4,0,0,0,172.81,307.37Z" fill="#263238"/>
        <path id="Path_372" data-name="Path 372" d="M188.63,299.75a6.055,6.055,0,0,0-1.09.49,5.07,5.07,0,0,0-2.65,4.73,6.369,6.369,0,0,0,.15,1.19,1.349,1.349,0,0,1-.13-.31,4.259,4.259,0,0,1-.16-.87,4.9,4.9,0,0,1,2.73-4.86,3.782,3.782,0,0,1,.83-.32,1,1,0,0,1,.32-.05Z" fill="#263238"/>
        <path id="Path_373" data-name="Path 373" d="M184.54,294.14a28.4,28.4,0,0,1,1.38,3,26.523,26.523,0,0,1,1.2,3.1,27.626,27.626,0,0,1-1.38-3,29.455,29.455,0,0,1-1.2-3.1Z" fill="#263238"/>
        <path id="Path_374" data-name="Path 374" d="M182.57,305.56a9.839,9.839,0,0,1-2.1,1.11,9.428,9.428,0,0,1-2.27.71c0-.05,1-.39,2.19-.9S182.54,305.51,182.57,305.56Z" fill="#263238"/>
        <path id="Path_375" data-name="Path 375" d="M185.51,304.36c.05,0,0,.24,0,.5v.51a.759.759,0,0,1-.17-.52C185.35,304.54,185.46,304.33,185.51,304.36Z" fill="#263238"/>
        <path id="Path_376" data-name="Path 376" d="M186.05,302.53a1.594,1.594,0,0,1-.07.43c-.07.22-.21.39-.26.37s0-.22.08-.44S186,302.51,186.05,302.53Z" fill="#263238"/>
        <path id="Path_377" data-name="Path 377" d="M187.38,301.25c0,.06-.19.14-.38.3s-.3.35-.35.33,0-.27.22-.47S187.38,301.2,187.38,301.25Z" fill="#263238"/>
        <path id="Path_378" data-name="Path 378" d="M188.39,300.5a.34.34,0,0,1-.13.25c-.13.1-.22.14-.25.1s0-.15.12-.25S188.35,300.46,188.39,300.5Z" fill="#263238"/>
        <path id="Path_379" data-name="Path 379" d="M238.59,212.28l-47.3.89A15.18,15.18,0,0,0,176.5,226.5l-9.38,76.23h25.69l7.84-65.84H238Z" fill="#263238"/>
        <path id="Path_380" data-name="Path 380" d="M167.44,297.88c0,.12,5.63.26,12.57.3s12.45-.13,12.57-.14c.8-.08-5.63-.26-12.57-.3S167.44,297.76,167.44,297.88Z" fill="#455a64"/>
        <path id="Path_381" data-name="Path 381" d="M264.61,209.88h-.93L261,210l-9.78.46L219,212.12c-1.58.07-3.13.2-4.66.22s-3.06.09-4.55.17-2.94.19-4.37.34a16.061,16.061,0,0,0-4.16.81,10.07,10.07,0,0,0-3.45,2.09,8.65,8.65,0,0,0-2.1,3.19,15.3,15.3,0,0,0-.85,3.44,21.825,21.825,0,0,0-.23,3.26,13.12,13.12,0,0,0,1.1,5.48,8.91,8.91,0,0,0,2.58,3.34,7.2,7.2,0,0,0,2.35,1.26c.59.17.6.12,0-.08a7.56,7.56,0,0,1-2.28-1.31,9,9,0,0,1-2.47-3.3,13.09,13.09,0,0,1-1-5.39,22.672,22.672,0,0,1,.25-3.21,15.519,15.519,0,0,1,.86-3.36,8.35,8.35,0,0,1,2-3,9.81,9.81,0,0,1,3.34-2,16.6,16.6,0,0,1,4.06-.77c1.42-.14,2.88-.24,4.36-.32s3-.14,4.52-.16,3.09-.15,4.67-.22l32.25-1.8,9.78-.6,2.65-.18.69-.06a.75.75,0,0,0,.27-.08Z" fill="#455a64"/>
        <path id="Path_382" data-name="Path 382" d="M249.54,178.26l-4.11,12.88a14.87,14.87,0,0,1-11.55,10.35L210,208.11l-1.86-4.42-1.74-6.53,20.66-7a5.53,5.53,0,0,0,4.17-4l8.23-17.9,10.42,6.39Z" fill="#b78876"/>
        <path id="Path_383" data-name="Path 383" d="M259.56,138c-8.75,1-11.57,4.58-15.14,9.75a29.259,29.259,0,0,0-3.54,6.93l-6.63,18.78,13.83,4.27L247.62,193l-6.3,18.67,53.13,4.18-.15-27.13-.38-16.37c.5-6.2,1.79-19.34.69-22.46-4.73-13.33-15.16-10.77-22.81-12.67a51.521,51.521,0,0,0-10.54,0" fill="#845EC2"/>
        <path id="Path_384" data-name="Path 384" d="M294.45,187c0,.14-10.39.26-23.21.26S248,187.17,248,187s10.39-.26,23.21-.26S294.45,186.88,294.45,187Z" fill="#fafafa"/>
        <path id="Path_385" data-name="Path 385" d="M293.67,196.3c0,.15-10.39.26-23.21.26s-23.21-.11-23.21-.26,10.39-.26,23.21-.26S293.67,196.16,293.67,196.3Z" fill="#fafafa"/>
        <path id="Path_386" data-name="Path 386" d="M293.92,206.94c0,.15-11,.26-24.54.26s-24.55-.11-24.55-.26,11-.26,24.55-.26S293.92,206.8,293.92,206.94Z" fill="#fafafa"/>
        <g id="Group_10" data-name="Group 10" opacity="0.3">
          <path id="Path_387" data-name="Path 387" d="M287.47,181.1c-.69,3.59-1,7.47-2.22,10.92a26.439,26.439,0,0,1-3.55,7.23,17.88,17.88,0,0,1-9,6c-3.51,1.09-20.38,4.86-24,4.58l30.86-14.61,3.72-15.36Z"/>
        </g>
        <path id="Path_388" data-name="Path 388" d="M285.67,180.56l-3.39,13.06a15,15,0,0,1-11.1,11L243.94,211l-7.49.08V200.77l27.42-7.41a5.58,5.58,0,0,0,4-4.18l2.64-11.49Z" fill="#b78876"/>
        <path id="Path_389" data-name="Path 389" d="M294.72,149.13c0,.14-11.45.26-25.58.26s-25.58-.12-25.58-.26,11.45-.26,25.58-.26S294.72,149,294.72,149.13Z" fill="#fafafa"/>
        <path id="Path_390" data-name="Path 390" d="M295,158c0,.15-12.34.26-27.57.26s-27.57-.11-27.57-.26,12.34-.26,27.57-.26S295,157.84,295,158Z" fill="#fafafa"/>
        <path id="Path_391" data-name="Path 391" d="M294.33,167.55c0,.15-13,.37-29,.49s-29,.11-29,0,13-.36,29-.49S294.32,167.41,294.33,167.55Z" fill="#fafafa"/>
        <path id="Path_392" data-name="Path 392" d="M293.92,177.69c0,.14-10.39.26-23.21.26s-23.21-.12-23.21-.26,10.39-.26,23.21-.26S293.92,177.55,293.92,177.69Z" fill="#fafafa"/>
        <path id="Path_393" data-name="Path 393" d="M290.34,181.65a.53.53,0,0,1,0-.22l.09-.63c.09-.59.22-1.4.37-2.42.33-2.12.81-5.19,1.34-9s1.14-8.47,1.45-13.69c.1-2.59.32-5.45-1-8a8.48,8.48,0,0,0-2.81-3.18,10,10,0,0,0-4.11-1.59h-.06a8.5,8.5,0,0,0-5.06.35,14.41,14.41,0,0,0-4.68,2.54,3.649,3.649,0,0,0-.72.81,10.18,10.18,0,0,0-.53,1,15.511,15.511,0,0,0-.77,2.1,41,41,0,0,0-.92,4.35c-.52,2.89-1,5.71-1.51,8.42-1,5.42-1.87,10.42-2.67,14.85l-.15-.23,15.4,3.23,4.23.94,1.11.26a1.89,1.89,0,0,1,.37.11l-.39-.05-1.11-.2-4.26-.83-15.44-3.12h-.18v-.2c.78-4.43,1.65-9.44,2.6-14.87.48-2.71,1-5.53,1.49-8.43a39.062,39.062,0,0,1,.93-4.39,14.591,14.591,0,0,1,.79-2.18q.255-.513.56-1a4.461,4.461,0,0,1,.81-.92,15,15,0,0,1,4.87-2.65,9,9,0,0,1,5.38-.33h-.05a10.47,10.47,0,0,1,4.34,1.69,9,9,0,0,1,3,3.37,10.663,10.663,0,0,1,.78,2.05,12.792,12.792,0,0,1,.31,2.11l.06,1v1c0,.68-.05,1.34-.09,2-.34,5.25-1,9.87-1.56,13.72s-1.11,6.91-1.49,9c-.19,1-.35,1.82-.46,2.41l-.13.62a1.258,1.258,0,0,1-.13.2Z" fill="#263238"/>
        <path id="Path_394" data-name="Path 394" d="M247.93,192.79a9.109,9.109,0,0,0,.07-1.39v-3.8c0-3.2,0-7.62-.09-12.51s-.13-9.31-.21-12.51c-.05-1.55-.09-2.82-.12-3.8a9.281,9.281,0,0,0-.1-1.39,7.709,7.709,0,0,0-.07,1.39c0,1,0,2.25,0,3.8,0,3.2,0,7.63.09,12.51s.14,9.32.22,12.52c0,1.54.09,2.82.12,3.79a7.7,7.7,0,0,0,.09,1.39Z" fill="#263238"/>
        <path id="Path_395" data-name="Path 395" d="M264.61,213.28l.47-2.23-20.63-2.2-9-25.85-42.02-.29,13.77,29.98Z" fill="#455a64"/>
        <path id="Path_396" data-name="Path 396" d="M220.36,199.24a2.07,2.07,0,1,0-1.563.273,2.07,2.07,0,0,0,1.563-.273" fill="#fff"/>
        <path id="Path_397" data-name="Path 397" d="M249,95.41a5.58,5.58,0,0,0-2,10.3,3,3,0,0,0,2.81.32,3.45,3.45,0,0,0,1.52-2.2,11.78,11.78,0,0,0-.67-8.59" fill="#263238"/>
        <path id="Path_398" data-name="Path 398" d="M266.29,146.45h0a9,9,0,0,1-9-9.07c0-3.11.08-5.81.08-5.81s-7.2-.67-7.73-7.8-.3-23.59-.3-23.59h0a24.88,24.88,0,0,1,25.11,1.6l1.1.75-.34,35A9,9,0,0,1,266.29,146.45Z" fill="#b78876"/>
        <path id="Path_399" data-name="Path 399" d="M257.39,131.47a16.59,16.59,0,0,0,9.14-3.22s-1.88,5.27-9,5.07Z" fill="#aa6550"/>
        <path id="Path_400" data-name="Path 400" d="M273.75,110.41c.14,0,4.52-.62,4.1,4.56s-5.5,3-5.5,2.89S273.75,110.41,273.75,110.41Z" fill="#b78876"/>
        <path id="Path_401" data-name="Path 401" d="M274.08,116.17a2.648,2.648,0,0,0,.24.16.89.89,0,0,0,.67.06,2.22,2.22,0,0,0,1.19-1.91,3,3,0,0,0-.15-1.32,1,1,0,0,0-.62-.74.45.45,0,0,0-.55.2c-.08.14-.06.25-.09.26s-.1-.1,0-.31a.59.59,0,0,1,.23-.31.67.67,0,0,1,.51-.09,1.26,1.26,0,0,1,.87.88,2.92,2.92,0,0,1,.2,1.46,2.35,2.35,0,0,1-1.49,2.13,1,1,0,0,1-.82-.2C274.08,116.3,274.06,116.18,274.08,116.17Z" fill="#aa6550"/>
        <path id="Path_402" data-name="Path 402" d="M254.3,103.13a20.352,20.352,0,0,0,3.36-2.43,5.45,5.45,0,0,0,8.39,1,2.8,2.8,0,0,0,1.41,2.25,2.77,2.77,0,0,0,2.65,0l.11,8.25a3.77,3.77,0,0,0,.52,2.28,1.31,1.31,0,0,0,2,.17,5.71,5.71,0,0,1,.28-3,2,2,0,0,1,2.49-1.11,20.5,20.5,0,0,0,.29-4.88,4.33,4.33,0,0,1,.2-1.49c.28-.46.41-.11.94-.22a3.69,3.69,0,0,0,2.78-3.33,4.65,4.65,0,0,0-2-4,6.37,6.37,0,0,0-4.42-1.06,2.81,2.81,0,0,0,0-3.76,4.59,4.59,0,0,0-3.76-1.38c-1.39.09-2.95.86-3.12,2.23a5.7,5.7,0,0,0-11.26-.31c-1.66-.74-4-1.55-5.64-.8a5.45,5.45,0,0,0-3.43,4.75s-.42,5.66,3.17,6.8S254.3,103.13,254.3,103.13Z" fill="#263238"/>
        <path id="Path_403" data-name="Path 403" d="M251.26,111.6a1,1,0,1,0,1-.9A1,1,0,0,0,251.26,111.6Z" fill="#263238"/>
        <path id="Path_404" data-name="Path 404" d="M251,110.47c.12.13.88-.43,2-.42s1.86.54,2,.41-.07-.3-.41-.55a2.78,2.78,0,0,0-1.59-.49,2.65,2.65,0,0,0-1.56.51A.97.97,0,0,0,251,110.47Z" fill="#263238"/>
        <path id="Path_405" data-name="Path 405" d="M261.8,111.85a1,1,0,1,0,1-.9A1,1,0,0,0,261.8,111.85Z" fill="#263238"/>
        <path id="Path_406" data-name="Path 406" d="M261.62,110.67c.12.14.88-.43,2-.42s1.86.54,2,.41-.07-.3-.41-.55a2.78,2.78,0,0,0-1.59-.49,2.65,2.65,0,0,0-1.56.51C261.67,110.38,261.56,110.62,261.62,110.67Z" fill="#263238"/>
        <path id="Path_407" data-name="Path 407" d="M257.71,118.66a7,7,0,0,0-1.74-.32c-.28,0-.54-.08-.59-.27a1.38,1.38,0,0,1,.19-.81l.81-2.1a36.429,36.429,0,0,0,1.83-5.47,35.783,35.783,0,0,0-2.27,5.31c-.27.74-.53,1.44-.77,2.11a1.56,1.56,0,0,0-.15,1.08.73.73,0,0,0,.45.4,1.72,1.72,0,0,0,.47.06,7.25,7.25,0,0,0,1.77.01Z" fill="#263238"/>
        <path id="Path_408" data-name="Path 408" d="M260.88,119.4c-.17,0-.18,1.16-1.18,2s-2.24.7-2.25.86.28.23.8.24a2.86,2.86,0,0,0,1.88-.65,2.56,2.56,0,0,0,.92-1.67C261.09,119.68,261,119.39,260.88,119.4Z" fill="#263238"/>
        <path id="Path_409" data-name="Path 409" d="M261.34,106.46c.11.29,1.18.15,2.44.3s2.29.5,2.46.24-.11-.4-.52-.69a4.09,4.09,0,0,0-1.82-.63,4,4,0,0,0-1.91.22C261.53,106.09,261.3,106.32,261.34,106.46Z" fill="#263238"/>
        <path id="Path_410" data-name="Path 410" d="M251.44,107.36c.19.24.93,0,1.82,0s1.64.16,1.82-.09,0-.37-.37-.6a2.65,2.65,0,0,0-2.94.09C251.46,107,251.35,107.24,251.44,107.36Z" fill="#263238"/>
        <path id="Path_411" data-name="Path 411" d="M253.48,95.07a.778.778,0,0,1-.28-.08.92.92,0,0,0-.74.19,1,1,0,0,0-.33,1.08,1.76,1.76,0,0,0,1.07,1.17,2.29,2.29,0,0,0,1.92-.12,2.38,2.38,0,0,0,1.16-1.85,2.66,2.66,0,0,0-.9-2.26,3.16,3.16,0,0,0-2.52-.81,4.11,4.11,0,0,0-2.45,1.22,4.58,4.58,0,0,0-1.17,2.29,6.19,6.19,0,0,0,.73,4.35,7.21,7.21,0,0,0,2,2.28c.59.42,1,.6,1,.64a3.26,3.26,0,0,1-1.06-.47,6.82,6.82,0,0,1-2.25-2.26,6.48,6.48,0,0,1-.88-4.63,5,5,0,0,1,1.28-2.56,4.5,4.5,0,0,1,2.75-1.37,3.67,3.67,0,0,1,2.93.94,3.14,3.14,0,0,1,1,2.69,2.81,2.81,0,0,1-1.43,2.18,2.69,2.69,0,0,1-2.28.08,2,2,0,0,1-1.2-1.44,1.23,1.23,0,0,1,.5-1.32,1,1,0,0,1,.88-.13C253.43,95,253.49,95.06,253.48,95.07Z" fill="#455a64"/>
      </g>
      <g id="freepik--Plants--inject-3">
        <path id="Path_412" data-name="Path 412" d="M86.05,426c.67-2.66-1.08-5.31-3-7.23s-4.3-3.63-5.33-6.17c-1.67-4.12.51-9.48-2.32-12.9-1.66-2-4.63-2.68-6.1-4.84A11,11,0,0,1,67.9,391,39.36,39.36,0,0,0,58,372.78a34.08,34.08,0,0,0,4,17.6c1.15,2.16,2.56,4.26,2.95,6.68.64,3.92-1.53,8-.55,11.82,1.13,4.4,6.1,7.32,6.36,11.86.22,3.83-3.11,7.22-2.83,11.05a10.32,10.32,0,0,0,1.73,4.54c3,4.91,7.37,8.28,14,8.13l8.09.24Z" fill="#845EC2"/>
        <g id="Group_11" data-name="Group 11" opacity="0.3">
          <path id="Path_413" data-name="Path 413" d="M86.05,426c.67-2.66-1.08-5.31-3-7.23s-4.3-3.63-5.33-6.17c-1.67-4.12.51-9.48-2.32-12.9-1.66-2-4.63-2.68-6.1-4.84A11,11,0,0,1,67.9,391,39.36,39.36,0,0,0,58,372.78a34.08,34.08,0,0,0,4,17.6c1.15,2.16,2.56,4.26,2.95,6.68.64,3.92-1.53,8-.55,11.82,1.13,4.4,6.1,7.32,6.36,11.86.22,3.83-3.11,7.22-2.83,11.05a10.32,10.32,0,0,0,1.73,4.54c3,4.91,7.37,8.28,14,8.13l8.09.24Z"/>
        </g>
        <path id="Path_414" data-name="Path 414" d="M93.32,444.9a6.271,6.271,0,0,0,2.22-.06,13.463,13.463,0,0,0,2.63-.68,11.08,11.08,0,0,0,3.23-1.79,4.67,4.67,0,0,0,1.33-1.79,8.28,8.28,0,0,0,.36-2.42,23.7,23.7,0,0,1,.18-2.61,7.09,7.09,0,0,1,1-2.61c.94-1.68,2.52-3.28,3-5.55a19.584,19.584,0,0,0-.26-7.09c-.39-2.43-.77-5.07.14-7.6s2.62-4.83,3.49-7.68.43-6,.6-9a12.1,12.1,0,0,1,1-4.49c.65-1.44,1.55-2.79,2.25-4.3,1.42-3.06,1.65-6.51,2-9.9.18-1.7.37-3.43.55-5.17a26,26,0,0,1,.87-5.18,45.09,45.09,0,0,1,1.91-5,16.881,16.881,0,0,0,.92-2.62,26.8,26.8,0,0,0,.25-2.78,32.821,32.821,0,0,0-.25-5.6c-.23-1.87-.58-3.71-.79-5.58v-.7l-.33.17a12.5,12.5,0,0,0-4.33,3.7,19.65,19.65,0,0,0-2.65,4.94c-1.33,3.49-1.8,7.13-2.46,10.61a28.57,28.57,0,0,1-3.27,9.8c-.87,1.44-1.94,2.76-2.87,4.17a11.451,11.451,0,0,0-2,4.62c-.46,3.43,1.44,6.42,1.07,9.45a10.46,10.46,0,0,1-1.45,4.21c-.73,1.29-1.59,2.5-2.4,3.71a23.653,23.653,0,0,0-2.15,3.74,11.93,11.93,0,0,0-1,4.06c-.18,2.73.22,5.31,0,7.76a17.88,17.88,0,0,1-2,6.65c-1,2-2,3.8-3,5.55-.45.88-.87,1.73-1.21,2.59a12.5,12.5,0,0,0-.69,2.56,15.88,15.88,0,0,0,0,4.61,11.65,11.65,0,0,0,2.35,5.88,5.655,5.655,0,0,0,.66.7,3.748,3.748,0,0,0,.53.45c.3.22.47.32.47.32a10,10,0,0,1-1.58-1.54,11.66,11.66,0,0,1-2.23-5.83,15.91,15.91,0,0,1,.08-4.55,12.489,12.489,0,0,1,.7-2.5,26.746,26.746,0,0,1,1.22-2.55c.91-1.74,2-3.54,3-5.54a18.07,18.07,0,0,0,2-6.78c.2-2.49-.19-5.09,0-7.75a11.66,11.66,0,0,1,1-3.93,24.319,24.319,0,0,1,2.13-3.66c.81-1.2,1.68-2.41,2.42-3.74a10.8,10.8,0,0,0,1.52-4.37c.37-3.23-1.51-6.25-1.05-9.43a11.05,11.05,0,0,1,1.92-4.42c.91-1.38,2-2.7,2.89-4.19a29.17,29.17,0,0,0,3.34-10c.67-3.5,1.14-7.1,2.44-10.51a19.3,19.3,0,0,1,2.58-4.82,11.91,11.91,0,0,1,4.15-3.54l-.37-.21v.33c.21,1.89.56,3.74.79,5.58a32.93,32.93,0,0,1,.24,5.51c-.05.91-.1,1.85-.23,2.7a15.909,15.909,0,0,1-.9,2.53,47.08,47.08,0,0,0-1.92,5.07,26.161,26.161,0,0,0-.88,5.26c-.18,1.75-.36,3.47-.54,5.18-.37,3.4-.6,6.8-2,9.75-.67,1.46-1.57,2.82-2.24,4.3a12.58,12.58,0,0,0-1,4.67c-.16,3.12.26,6.17-.57,8.94s-2.57,5.06-3.45,7.67-.53,5.37-.13,7.79.81,4.8.3,6.95-2,3.76-2.94,5.48a7.6,7.6,0,0,0-1,2.71,22.421,22.421,0,0,0-.15,2.65,8.06,8.06,0,0,1-.34,2.36,4.29,4.29,0,0,1-1.24,1.7A11,11,0,0,1,98.11,444a14.2,14.2,0,0,1-2.59.72,10.219,10.219,0,0,1-1.64.16Z" fill="#263238"/>
        <path id="Path_415" data-name="Path 415" d="M118.33,349.49a.75.75,0,0,0-.08.24,3.331,3.331,0,0,1-.18.73c-.15.64-.34,1.6-.63,2.8a40.421,40.421,0,0,1-1.66,4.24,58.64,58.64,0,0,0-1.89,5.74c-.6,2.16-1.14,4.56-1.69,7.13a29.86,29.86,0,0,1-2.55,7.91c-.65,1.32-1.39,2.66-2,4.11a19.059,19.059,0,0,0-1.14,4.65,93,93,0,0,1-1.69,9.79c-1.58,6.64-3.09,13-4.47,18.72s-2.67,10.9-3.74,15.26-1.89,7.82-2.48,10.3c-.28,1.18-.5,2.12-.65,2.8-.07.3-.12.54-.16.74a.79.79,0,0,0,0,.25l.08-.24q.09-.29.21-.72l.74-2.78c.64-2.47,1.54-6,2.64-10.26l3.86-15.24c1.38-5.76,2.91-12.08,4.51-18.72a91.5,91.5,0,0,0,1.68-9.83,18.53,18.53,0,0,1,1.1-4.53c.56-1.42,1.29-2.75,1.94-4.08a30,30,0,0,0,2.54-8c.54-2.57,1-5,1.63-7.12s1.19-4.08,1.8-5.74a40.942,40.942,0,0,0,1.58-4.28c.29-1.28.42-2.19.55-2.84a4.078,4.078,0,0,1,.12-.74,1.51,1.51,0,0,0,.03-.29Z" fill="#263238"/>
        <path id="Path_416" data-name="Path 416" d="M94.74,444.92c5.27-3.17,6.73-12.71,4.49-18.43s-6.12-10.95-6.75-17.06c-.48-4.7,1-9.53-.09-14.12-1.51-6.19-7.6-11-7.56-17.34,0-3.57,2-7,1.85-10.52-.22-4.39-3.61-7.84-5.71-11.69-3.23-5.89-3.48-12.88-4.6-19.5s-3.7-13.7-9.59-16.93C66,325,64.49,328.83,65,336.45c.18,2.73,3.39,7.95,3.85,13.95.28,3.58.48,7.17.72,10.76s.48,7,1.75,10.3c1,2.5,2.53,4.76,3.26,7.34,1.36,4.86-.37,10.13.74,15.05.94,4.17,3.85,7.75,4.47,12,.86,5.94-3,12.14-1,17.8,1,2.8,3.32,5.05,4,7.95.52,2.26,0,4.65.46,6.91.76,3.64,7.74,6.44,11.45,6.19" fill="#845EC2"/>
        <path id="Path_417" data-name="Path 417" d="M68.27,324.91a1.54,1.54,0,0,0,0,.32c0,.23.08.54.13.92.12.81.27,2,.55,3.55s1.11,3.29,1.76,5.39,1.37,4.51,2,7.22,1.14,5.71,1.69,8.93a37.29,37.29,0,0,0,2.77,10.09c.75,1.69,1.59,3.37,2.22,5.17a23.16,23.16,0,0,1,1.15,5.7,114.123,114.123,0,0,0,1.62,12.3c1.66,8.32,3.25,16.25,4.69,23.47l4,19.12c1.2,5.41,2.15,9.81,2.81,12.91.33,1.49.59,2.66.78,3.5q.14.55.21.9a1.311,1.311,0,0,0,.09.31,1.11,1.11,0,0,0,0-.32,6.519,6.519,0,0,0-.16-.91c-.16-.84-.39-2-.68-3.52-.63-3.08-1.51-7.49-2.61-12.91s-2.45-11.95-3.93-19.15l-4.65-23.46A118,118,0,0,1,81,372.15a23.59,23.59,0,0,0-1.18-5.82c-.66-1.83-1.51-3.52-2.26-5.19a37.52,37.52,0,0,1-2.78-10c-.56-3.22-1.11-6.23-1.75-8.94A73.275,73.275,0,0,0,71,335c-.68-2.11-1.52-3.84-1.84-5.35s-.49-2.71-.65-3.51c-.07-.38-.13-.69-.17-.92a1.87,1.87,0,0,0-.07-.31Z" fill="#263238"/>
        <path id="Path_418" data-name="Path 418" d="M662.9,418.38c-1.22,1.74-3.59,1.16-4.69.1a8.88,8.88,0,0,1-2-4.07c-1-3.36-1.94-6.88-1.22-10.29a5.72,5.72,0,0,1,1.31-2.8,3,3,0,0,1,2.83-.94,4.35,4.35,0,0,1,2.48,2.59,24.64,24.64,0,0,1,2.42,10.53,8.461,8.461,0,0,1-1.15,4.88" fill="#845EC2"/>
        <g id="Group_12" data-name="Group 12" opacity="0.2">
          <path id="Path_419" data-name="Path 419" d="M662.9,418.38c-1.22,1.74-3.59,1.16-4.69.1a8.88,8.88,0,0,1-2-4.07c-1-3.36-1.94-6.88-1.22-10.29a5.72,5.72,0,0,1,1.31-2.8,3,3,0,0,1,2.83-.94,4.35,4.35,0,0,1,2.48,2.59,24.64,24.64,0,0,1,2.42,10.53,8.461,8.461,0,0,1-1.15,4.88"/>
        </g>
        <path id="Path_420" data-name="Path 420" d="M658.33,427.19a10.51,10.51,0,0,0-6.55-.79,5.43,5.43,0,0,0-3.24,1.44,2.33,2.33,0,0,0,0,3.23,3.06,3.06,0,0,0,2,.52c1.73,0,3.66-.32,5,.72.79.59,1.31,1.58,2.26,1.87a2.22,2.22,0,0,0,2.45-1.09,3.79,3.79,0,0,0,.28-2.81,4.31,4.31,0,0,0-2.2-3.09Z" fill="#845EC2"/>
        <path id="Path_421" data-name="Path 421" d="M666.25,420.87a6.3,6.3,0,0,1-1-5.82,11.219,11.219,0,0,1,3.45-5,18.631,18.631,0,0,1,6.19-3.65,6.629,6.629,0,0,1,2.78-.47,2.91,2.91,0,0,1,2.33,1.41c.65,1.24,0,2.75-.65,4a47.127,47.127,0,0,1-4.06,6.19,11,11,0,0,1-4.46,3.82c-1.86.71-3.79.63-4.77-.66" fill="#845EC2"/>
        <path id="Path_422" data-name="Path 422" d="M663,444.64a4.265,4.265,0,0,1-.11-.8c0-.57-.12-1.29-.21-2.15a31.613,31.613,0,0,0-.48-3.17,25.066,25.066,0,0,0-1.15-3.74,14.2,14.2,0,0,0-1.91-3.38,7,7,0,0,0-2.41-2,6.769,6.769,0,0,0-2-.64,4,4,0,0,1-.78-.11,3.51,3.51,0,0,1,.8,0,6,6,0,0,1,2.12.55,7.12,7.12,0,0,1,2.54,2,13.379,13.379,0,0,1,2,3.45,23.126,23.126,0,0,1,1.14,3.8,26.431,26.431,0,0,1,.42,3.2c.07.92.1,1.66.11,2.18A3.188,3.188,0,0,1,663,444.64Z" fill="#263238"/>
        <path id="Path_423" data-name="Path 423" d="M662.83,443a2.435,2.435,0,0,1,0-.36q0-.42,0-1.05c0-.91,0-2.23-.05-3.86-.08-3.25-.36-7.75-.9-12.69s-1.27-9.38-1.93-12.57c-.16-.8-.31-1.52-.46-2.15s-.26-1.17-.38-1.61l-.24-1a1.41,1.41,0,0,1-.07-.37,1.52,1.52,0,0,1,.13.35l.31,1c.13.44.27,1,.43,1.61s.33,1.34.51,2.14a122.913,122.913,0,0,1,2,12.59c.54,4.95.79,9.45.81,12.72,0,1.63,0,2.95-.06,3.86a5.34,5.34,0,0,1-.06,1.05A3.41,3.41,0,0,0,662.83,443Z" fill="#263238"/>
        <path id="Path_424" data-name="Path 424" d="M662.81,434.28a7.01,7.01,0,0,1,0-1.09,29.64,29.64,0,0,1,.34-3,38.809,38.809,0,0,1,1-4.33,38.144,38.144,0,0,1,1.81-5.12,27.149,27.149,0,0,1,5.32-8.28,12.851,12.851,0,0,1,1.25-1.16c.19-.16.36-.32.53-.45l.49-.34a6.655,6.655,0,0,1,.92-.59,31.74,31.74,0,0,0-3,2.7,28.78,28.78,0,0,0-5.18,8.25,40.115,40.115,0,0,0-1.82,5.07,35.167,35.167,0,0,0-1,4.28c-.21,1.28-.35,2.25-.43,2.95A7.521,7.521,0,0,1,662.81,434.28Z" fill="#263238"/>
      </g>
    </g>
  </g>
</svg>
